<svg width="21" height="24" viewBox="0 0 21 24" fill="none" xmlns="http://www.w3.org/2000/svg">
<g clip-path="url(#clip0_58_138)">
<path d="M16.2317 0C16.2571 0.852071 16.2215 1.70414 15.9673 2.52683C15.4539 4.20649 14.2847 5.21526 12.5207 5.55805C11.8039 5.70006 11.0617 5.71475 10.2941 5.7931C10.2941 5.38176 10.2789 5.04387 10.2992 4.70598C10.345 3.84901 10.5178 3.01653 10.9499 2.2575C11.6362 1.03326 12.7545 0.401551 14.1322 0.142012C14.4219 0.0881453 14.7219 0.0489696 15.0116 0C15.4183 0 15.825 0 16.2317 0ZM11.3922 4.68149C12.5105 4.58845 13.5425 4.33871 14.2847 3.47194C14.8744 2.78147 15.0726 1.96368 15.1235 1.08713C12.6783 1.17527 11.4938 2.60518 11.3922 4.68149Z" fill="#2A7891"/>
<path d="M20.6391 9.34829C17.9346 9.8086 16.6739 11.9388 16.7756 13.7849C16.8722 15.5282 18.2397 17.5507 20.9949 17.7857C21 17.8053 21.0102 17.8298 21.0051 17.8494C20.5222 19.4458 19.8664 20.9541 18.7175 22.2224C18.0363 22.9765 17.2331 23.5789 16.2164 23.8531C15.0269 24.1714 13.8831 23.9755 12.7952 23.4662C12.175 23.1773 11.5396 22.9667 10.8431 22.9667C10.2331 22.9667 9.6536 23.0892 9.10966 23.3585C8.37255 23.7258 7.59477 23.951 6.76616 23.9951C5.39869 24.0637 4.27524 23.5299 3.31954 22.6386C2.15033 21.5466 1.42847 20.1902 0.920117 18.726C0.208425 16.679 -0.111836 14.5635 0.0457527 12.4089C0.254177 9.52458 2.33842 7.02223 5.19535 6.41011C6.30356 6.17016 7.4016 6.23382 8.47422 6.5913C9.08424 6.79208 9.70443 6.98795 10.3094 7.20832C10.6703 7.34053 11.0109 7.33564 11.3718 7.20832C12.1547 6.93898 12.9325 6.62558 13.7407 6.44929C16.2367 5.91062 18.3007 6.66965 19.968 8.50111C20.1866 8.74107 20.3747 9.0055 20.5781 9.26014C20.5933 9.26994 20.6086 9.29932 20.6391 9.34829ZM18.8141 8.82431C18.7836 8.79003 18.7633 8.76555 18.7429 8.74596C17.2382 7.3993 15.5098 6.96837 13.5374 7.57069C12.9121 7.76167 12.297 7.97714 11.6819 8.19261C11.1075 8.39338 10.5432 8.39338 9.97386 8.19261C9.35875 7.97714 8.73856 7.77636 8.11837 7.57069C7.21351 7.27198 6.29339 7.22301 5.36311 7.43358C3.03994 7.95755 1.28105 10.0437 1.11329 12.5117C0.976036 14.5831 1.30646 16.6056 2.02832 18.5644C2.49092 19.8082 3.11111 20.9688 4.11256 21.9041C4.92593 22.6631 5.87654 23.0794 7.04067 22.9178C7.59477 22.8443 8.10821 22.668 8.60131 22.4232C9.16049 22.144 9.76035 21.9824 10.3856 21.9286C11.3922 21.8404 12.3224 22.0706 13.2222 22.5015C14.9201 23.3144 16.496 23.0451 17.7516 21.6788C18.2244 21.1647 18.6107 20.5672 18.9818 19.9747C19.2513 19.5438 19.4241 19.059 19.6478 18.584C18.5192 18.2559 17.6093 17.6878 16.8976 16.8406C16.1859 15.9886 15.7589 15.0141 15.7131 13.9269C15.6216 11.6107 16.7044 9.93592 18.8141 8.82431Z" fill="#2A7891"/>
</g>
<defs>
<clipPath id="clip0_58_138">
<rect width="21" height="24" fill="white"/>
</clipPath>
</defs>
</svg>
