<svg width="26" height="28" viewBox="0 0 26 28" fill="none" xmlns="http://www.w3.org/2000/svg">
<g clip-path="url(#clip0_397_1100)">
<path d="M24.2315 28.0001C16.7438 28.0001 9.25615 28.0001 1.76845 28.0001C1.43734 27.8398 1.0686 27.7304 0.775109 27.519C0.195658 27.0962 0 26.4839 0 25.784C0.00752533 18.5599 0.00752533 11.3357 0.00752533 4.11157C0.00752533 4.02409 0.00752533 3.92932 0.0150507 3.84184C0.0602026 2.95978 0.647178 2.20894 1.52764 1.97566C1.82113 1.89548 2.13719 1.88819 2.44573 1.8809C2.92735 1.86632 3.4165 1.87361 3.92822 1.87361C3.92822 1.63304 3.92069 1.42164 3.92822 1.21753C3.97337 0.466682 4.53777 0.000136489 5.37308 0.00742626C6.13314 0.014716 6.66744 0.525 6.69001 1.26127C6.69754 1.45809 6.69001 1.65491 6.69001 1.85174C10.9117 1.85174 15.1033 1.85174 19.2874 1.85174C19.31 1.53099 19.2874 1.22482 19.3551 0.933227C19.5132 0.277148 20.1528 -0.080051 20.9355 0.014716C21.5751 0.0876137 22.0492 0.597897 22.0718 1.24669C22.0793 1.4508 22.0718 1.65491 22.0718 1.8809C22.6588 1.8809 23.2081 1.85903 23.7499 1.88819C24.081 1.90277 24.4347 1.9465 24.7357 2.07772C25.6313 2.46408 26 3.17848 26 4.11886C25.9925 11.3357 26 18.5526 25.9925 25.7622C25.9925 25.8642 25.9925 25.9663 25.9849 26.0611C25.9398 26.9212 25.3603 27.6429 24.51 27.9054C24.4197 27.9345 24.3294 27.971 24.2315 28.0001ZM25.1496 7.74187C25.1496 7.60336 25.1496 7.51589 25.1496 7.42112C25.1496 6.31308 25.1496 5.19774 25.1496 4.0897C25.1496 3.19305 24.6454 2.70464 23.7198 2.69735C22.6287 2.69735 21.5375 2.69735 20.4463 2.69735C20.356 2.69735 20.2657 2.69735 20.1528 2.69735C20.1528 3.08371 20.1528 3.42633 20.1528 3.76895C20.1528 4.16988 20.2206 4.25007 20.6344 4.33755C20.8753 4.38858 21.0258 4.56353 21.0107 4.78222C20.9881 5.00821 20.8 5.154 20.5366 5.154C20.0249 5.154 19.5282 4.80409 19.3777 4.30839C19.3175 4.11886 19.3175 3.91474 19.31 3.71792C19.3025 3.38259 19.31 3.05455 19.31 2.72651C14.4411 2.72651 9.61737 2.72651 4.77106 2.72651C4.77106 3.06913 4.77106 3.39717 4.77106 3.72521C4.77106 4.16988 4.83126 4.24278 5.2903 4.35213C5.51606 4.41045 5.64399 4.55624 5.63647 4.78951C5.62894 5.0155 5.44834 5.16129 5.2 5.16129C4.77858 5.16129 4.40984 5.00092 4.19913 4.65101C4.05615 4.41045 3.97337 4.11157 3.94327 3.83455C3.89812 3.47007 3.93575 3.09829 3.93575 2.71193C3.34877 2.71193 2.81447 2.71193 2.28017 2.71193C1.36961 2.71193 0.865412 3.20763 0.857887 4.08241C0.857887 5.21232 0.857887 6.34223 0.857887 7.47215C0.857887 7.55963 0.865412 7.6471 0.872938 7.75645C1.00839 7.75645 1.12127 7.75645 1.23415 7.75645C2.55861 7.75645 3.88307 7.75645 5.21505 7.75645C5.32793 7.75645 5.44081 7.75645 5.55369 7.77832C5.7644 7.82935 5.86223 7.97514 5.8547 8.18655C5.84718 8.38337 5.7343 8.51459 5.53864 8.55103C5.43328 8.5729 5.31288 8.5729 5.2 8.5729C3.87554 8.5729 2.55109 8.5729 1.2191 8.5729C1.10622 8.5729 1.00087 8.5729 0.880463 8.5729C0.872938 8.67496 0.865412 8.74786 0.865412 8.82076C0.865412 13.96 0.865412 19.0993 0.865412 24.2386C0.865412 25.0478 1.39219 25.5508 2.2275 25.5508C7.65326 25.5508 13.079 25.5508 18.5123 25.5508C19.1745 25.5508 19.5658 25.1717 19.5658 24.5302C19.5658 23.6919 19.5658 22.8536 19.5658 22.0152C19.5658 20.8489 20.3109 20.1272 21.5224 20.1199C22.3427 20.1199 23.1554 20.1199 23.9757 20.1199C24.826 20.1199 25.1722 19.7919 25.1722 18.9608C25.1722 15.6148 25.1722 12.2761 25.1722 8.9301C25.1722 8.82076 25.1722 8.71141 25.1722 8.5729C25.0142 8.5729 24.8863 8.5729 24.7583 8.5729C18.9864 8.5729 13.2069 8.5729 7.43502 8.5729C7.31462 8.5729 7.18669 8.5729 7.06628 8.55832C6.84805 8.52917 6.72764 8.38337 6.72012 8.18655C6.71259 7.97514 6.82547 7.81477 7.05123 7.77832C7.17164 7.75645 7.29204 7.75645 7.41997 7.75645C13.1919 7.75645 18.9713 7.75645 24.7433 7.75645C24.8561 7.74187 24.9841 7.74187 25.1496 7.74187ZM0.842836 25.9517C0.865412 26.1048 0.872938 26.2069 0.903039 26.2943C1.07612 26.8629 1.55774 27.1764 2.26512 27.1764C9.42171 27.1764 16.5783 27.1764 23.7424 27.1764C24.653 27.1764 25.1572 26.688 25.1572 25.8059C25.1572 24.4792 25.1572 23.1451 25.1572 21.8184C25.1572 21.7455 25.1421 21.6653 25.1346 21.556C25.0368 21.6435 24.969 21.7091 24.9013 21.7674C23.5844 23.0431 22.2599 24.3115 20.958 25.6018C20.4313 26.1194 19.8292 26.3672 19.0692 26.3672C13.6133 26.3599 8.15745 26.3599 2.70159 26.3672C2.06194 26.3599 1.43734 26.3672 0.842836 25.9517ZM24.4799 20.9364C23.5091 20.9364 22.4781 20.9291 21.4472 20.9364C20.7849 20.9364 20.4012 21.3154 20.4012 21.9569C20.4012 22.8098 20.4012 23.67 20.4012 24.5229C20.4012 24.6541 20.4012 24.7853 20.4012 24.8801C21.7708 23.5607 23.1404 22.2266 24.4799 20.9364ZM21.2365 1.85903C21.1838 1.51641 21.3945 1.11547 20.9957 0.904068C20.8226 0.81659 20.499 0.82388 20.341 0.933227C19.9948 1.15921 20.2055 1.53828 20.1528 1.85903C20.5366 1.85903 20.8677 1.85903 21.2365 1.85903ZM5.8547 1.85903C5.7945 1.51641 6.01274 1.12276 5.63647 0.911357C5.47091 0.81659 5.14732 0.82388 4.98177 0.918647C4.61302 1.13005 4.82373 1.5237 4.76353 1.85903C5.13227 1.85903 5.47091 1.85903 5.8547 1.85903Z" fill="#E11F3C"/>
<path d="M4.37221 18.8222C4.03357 18.8222 3.69493 18.8295 3.35629 18.8222C2.90477 18.8149 2.55861 18.5087 2.55108 18.0713C2.53603 17.4007 2.53603 16.7227 2.55108 16.0521C2.55861 15.6147 2.87467 15.2939 3.34124 15.2866C4.02605 15.2648 4.71838 15.2648 5.40318 15.2866C5.86975 15.3012 6.19334 15.622 6.20839 16.0812C6.22344 16.73 6.22344 17.3788 6.20839 18.0203C6.19334 18.516 5.84718 18.8222 5.33545 18.8295C5.01186 18.8222 4.6958 18.8222 4.37221 18.8222ZM5.3505 16.1031C4.68075 16.1031 4.04862 16.1031 3.4165 16.1031C3.4165 16.7446 3.4165 17.3642 3.4165 17.9839C4.0712 17.9839 4.70333 17.9839 5.3505 17.9839C5.3505 17.3496 5.3505 16.7373 5.3505 16.1031Z" fill="#E11F3C"/>
<path d="M15.8784 18.8222C15.5397 18.8222 15.2011 18.8295 14.8625 18.8222C14.4185 18.8149 14.0723 18.5306 14.0572 18.1005C14.0271 17.4007 14.0271 16.7009 14.0572 16.001C14.0723 15.5782 14.4034 15.2939 14.87 15.2794C15.5397 15.2648 16.2095 15.2648 16.8717 15.2794C17.3759 15.2939 17.692 15.6147 17.6995 16.1031C17.7146 16.7373 17.7146 17.3788 17.6995 18.013C17.692 18.516 17.3533 18.8222 16.8341 18.8222C16.518 18.8222 16.202 18.8222 15.8784 18.8222ZM14.9076 17.9839C15.5698 17.9839 16.202 17.9839 16.8416 17.9839C16.8416 17.3496 16.8416 16.73 16.8416 16.1031C16.1869 16.1031 15.5548 16.1031 14.9076 16.1031C14.9076 16.7373 14.9076 17.3496 14.9076 17.9839Z" fill="#E11F3C"/>
<path d="M10.129 18.8222C9.79793 18.8222 9.46682 18.8295 9.14323 18.8222C8.65408 18.8149 8.31544 18.516 8.30792 18.0422C8.29287 17.3788 8.29287 16.7154 8.30792 16.0448C8.32297 15.6001 8.63151 15.2866 9.09808 15.2721C9.78288 15.2502 10.4752 15.2502 11.16 15.2721C11.6341 15.2866 11.9502 15.6074 11.9577 16.0667C11.9728 16.7154 11.9728 17.3642 11.9577 18.0057C11.9427 18.5087 11.604 18.8076 11.0848 18.8149C10.7687 18.8222 10.4451 18.8222 10.129 18.8222ZM9.15828 16.1031C9.15828 16.7373 9.15828 17.3569 9.15828 17.9839C9.81298 17.9839 10.4451 17.9839 11.0923 17.9839C11.0923 17.3496 11.0923 16.73 11.0923 16.1031C10.4376 16.1031 9.80546 16.1031 9.15828 16.1031Z" fill="#E11F3C"/>
<path d="M2.54363 11.9698C2.54363 11.6491 2.5361 11.3283 2.54363 11.0148C2.55868 10.5483 2.85217 10.2275 3.32626 10.213C4.01859 10.1911 4.71845 10.1911 5.41078 10.213C5.86982 10.2275 6.18589 10.541 6.20094 10.9857C6.22351 11.6418 6.22351 12.2978 6.20094 12.9539C6.18589 13.4278 5.8623 13.7412 5.37315 13.7485C4.7034 13.7631 4.04117 13.7631 3.37141 13.7485C2.86722 13.7412 2.55868 13.4205 2.54363 12.932C2.5361 12.6113 2.54363 12.2905 2.54363 11.9698ZM5.34305 12.9175C5.34305 12.2833 5.34305 11.6636 5.34305 11.044C4.68082 11.044 4.04869 11.044 3.40904 11.044C3.40904 11.6782 3.40904 12.2905 3.40904 12.9175C4.06374 12.9175 4.69587 12.9175 5.34305 12.9175Z" fill="#E11F3C"/>
<path d="M11.9579 11.9917C11.9579 12.2906 11.9654 12.5967 11.9579 12.8956C11.9428 13.4278 11.6267 13.7412 11.0699 13.7485C10.4302 13.7558 9.79057 13.7558 9.15091 13.7485C8.62414 13.7412 8.30055 13.435 8.29303 12.932C8.27798 12.2978 8.27798 11.6563 8.29303 11.0221C8.30055 10.5264 8.61662 10.2203 9.12834 10.213C9.78304 10.1984 10.4453 10.1984 11.1 10.213C11.6267 10.2275 11.9353 10.5337 11.9503 11.044C11.9729 11.3575 11.9579 11.6782 11.9579 11.9917ZM9.15844 11.0294C9.15844 11.6709 9.15844 12.2833 9.15844 12.9175C9.81314 12.9175 10.4453 12.9175 11.0924 12.9175C11.0924 12.2833 11.0924 11.6636 11.0924 11.0294C10.4453 11.0294 9.81314 11.0294 9.15844 11.0294Z" fill="#E11F3C"/>
<path d="M23.4565 11.9552C23.4565 12.276 23.464 12.5894 23.4565 12.9102C23.4489 13.4205 23.1404 13.7412 22.6212 13.7485C21.9665 13.7631 21.3042 13.7631 20.6495 13.7485C20.1453 13.7412 19.8142 13.435 19.7992 12.9466C19.7766 12.2978 19.7766 11.6491 19.7992 11.0076C19.8142 10.5191 20.1378 10.2203 20.6495 10.2057C21.2967 10.1911 21.9439 10.1911 22.5986 10.2057C23.1404 10.2203 23.4489 10.5337 23.4565 11.0513C23.464 11.3502 23.4565 11.6563 23.4565 11.9552ZM20.642 11.0367C20.642 11.6418 20.6345 12.2104 20.6495 12.7863C20.6495 12.8373 20.7398 12.9248 20.7925 12.9248C21.387 12.9321 21.989 12.932 22.5986 12.932C22.5986 12.2833 22.5986 11.6709 22.5986 11.0367C21.9514 11.0367 21.3117 11.0367 20.642 11.0367Z" fill="#E11F3C"/>
<path d="M23.4565 17.1747C23.4565 17.4809 23.464 17.7943 23.4565 18.1005C23.4489 18.6108 23.1329 18.9315 22.6212 18.9388C21.9665 18.9534 21.3042 18.9534 20.6495 18.9388C20.1453 18.9315 19.8142 18.6254 19.7992 18.1369C19.7766 17.4882 19.7766 16.8394 19.7992 16.1979C19.8142 15.7095 20.1378 15.4106 20.6495 15.396C21.2967 15.3814 21.9439 15.3814 22.5986 15.396C23.1404 15.4106 23.4489 15.724 23.4565 16.2416C23.464 16.5551 23.4565 16.8685 23.4565 17.1747ZM22.5911 18.1151C22.5911 17.4809 22.5911 16.8612 22.5911 16.2416C21.9364 16.2416 21.2967 16.2416 20.657 16.2416C20.657 16.8758 20.657 17.4882 20.657 18.1151C21.3117 18.1151 21.9439 18.1151 22.5911 18.1151Z" fill="#E11F3C"/>
<path d="M15.8934 13.7558C15.5773 13.7558 15.2537 13.7631 14.9376 13.7558C14.3958 13.7412 14.0647 13.4496 14.0572 12.932C14.0421 12.2978 14.0421 11.6563 14.0572 11.0221C14.0722 10.5264 14.3883 10.2275 14.9 10.213C15.5547 10.1984 16.217 10.1984 16.8717 10.213C17.3909 10.2275 17.707 10.541 17.7145 11.0513C17.722 11.6709 17.722 12.2906 17.7145 12.9102C17.707 13.4423 17.3834 13.7485 16.8265 13.7631C16.5104 13.7558 16.2019 13.7558 15.8934 13.7558ZM14.9075 11.0294C14.9075 11.6709 14.9075 12.2906 14.9075 12.9029C15.5698 12.9029 16.2094 12.9029 16.8416 12.9029C16.8416 12.2614 16.8416 11.6491 16.8416 11.0294C16.1869 11.0294 15.5623 11.0294 14.9075 11.0294Z" fill="#E11F3C"/>
<path d="M2.54363 22.1026C2.54363 21.7818 2.5361 21.4684 2.54363 21.1476C2.55868 20.6665 2.88979 20.353 3.39399 20.3457C4.04117 20.3385 4.68835 20.3385 5.33552 20.3457C5.84725 20.353 6.19341 20.6665 6.20094 21.1622C6.21599 21.7964 6.21599 22.4379 6.20094 23.0721C6.19341 23.5751 5.83972 23.8959 5.32047 23.9032C4.68082 23.9104 4.04117 23.9104 3.40904 23.9032C2.89732 23.8959 2.5662 23.5824 2.55115 23.0867C2.5361 22.7587 2.54363 22.4306 2.54363 22.1026ZM3.41657 21.1768C3.41657 21.8256 3.41657 22.4452 3.41657 23.0648C4.07127 23.0648 4.71092 23.0648 5.34305 23.0648C5.34305 22.4233 5.34305 21.8037 5.34305 21.1768C4.68835 21.1768 4.06374 21.1768 3.41657 21.1768Z" fill="#E11F3C"/>
<path d="M10.1365 20.3457C10.4676 20.3457 10.7912 20.3385 11.1223 20.3457C11.5889 20.3603 11.9351 20.6592 11.9501 21.1112C11.9727 21.7818 11.9727 22.4598 11.9501 23.1304C11.9351 23.5897 11.5814 23.8959 11.0998 23.8959C10.4526 23.9032 9.80542 23.9032 9.15824 23.8959C8.66157 23.8886 8.3154 23.5824 8.30035 23.1013C8.2853 22.4452 8.2853 21.7891 8.30035 21.1403C8.3154 20.6592 8.64652 20.353 9.15071 20.3457C9.48183 20.3385 9.81294 20.3457 10.1365 20.3457ZM9.15071 23.0648C9.81294 23.0648 10.4451 23.0648 11.0998 23.0648C11.0998 22.4306 11.0998 21.811 11.0998 21.1841C10.4375 21.1841 9.79789 21.1841 9.15071 21.1841C9.15071 21.8183 9.15071 22.4233 9.15071 23.0648Z" fill="#E11F3C"/>
<path d="M16.8491 21.1768C16.1944 21.1768 15.5623 21.1768 14.885 21.1768C14.885 21.3444 14.8925 21.5121 14.885 21.6798C14.8699 21.9495 14.7194 22.1026 14.4711 22.1099C14.2303 22.1099 14.0647 21.9641 14.0422 21.6944C14.0422 21.6579 14.0422 21.6215 14.0422 21.585C13.982 20.7175 14.2378 20.2801 15.2914 20.3385C15.7956 20.3676 16.3073 20.3385 16.8115 20.3457C17.3608 20.353 17.6919 20.6665 17.6995 21.1914C17.707 21.811 17.707 22.4306 17.6995 23.0502C17.6919 23.5751 17.3533 23.8959 16.804 23.8959C16.1643 23.8959 15.5246 23.9031 14.885 23.8959C14.4184 23.8886 14.0647 23.5678 14.0422 23.145C14.0346 22.9263 14.1249 22.7659 14.3432 22.7076C14.5614 22.6493 14.727 22.7368 14.8398 22.9263C14.8775 22.9846 14.9452 23.0721 14.9979 23.0721C15.6074 23.0794 16.217 23.0794 16.8416 23.0794C16.8491 22.4379 16.8491 21.8183 16.8491 21.1768Z" fill="#E11F3C"/>
</g>
<defs>
<clipPath id="clip0_397_1100">
<rect width="26" height="28" fill="white"/>
</clipPath>
</defs>
</svg>
