<svg width="44" height="44" viewBox="0 0 44 44" fill="none" xmlns="http://www.w3.org/2000/svg">
<path d="M42.5333 14.6911C28.82 14.6911 15.1678 14.6911 1.46667 14.6911C1.46667 14.8744 1.46667 15.0456 1.46667 15.2045C1.46667 22.5011 1.46667 29.81 1.46667 37.1067C1.46667 38.72 2.34667 39.6 3.96 39.6C10.5478 39.6 17.1233 39.6 23.7111 39.6C23.8333 39.6 23.9556 39.6 24.0778 39.6C24.6033 39.6122 24.9456 39.9056 24.9333 40.3456C24.9211 40.7733 24.6033 41.0544 24.09 41.0667C23.21 41.0789 22.3178 41.0667 21.4378 41.0667C15.62 41.0667 9.80222 41.0667 3.97222 41.0667C1.51556 41.0789 0 39.5511 0 37.1067C0 27.5244 0 17.9545 0 8.37223C0 5.94001 1.52778 4.41223 3.93556 4.41223C5.04778 4.41223 6.16 4.41223 7.33333 4.41223C7.33333 3.96001 7.33333 3.53223 7.33333 3.11667C7.33333 1.33223 8.58 0.0244499 10.2544 0.0122277C11.9533 5.49201e-06 13.2 1.32001 13.2 3.12889C13.2 3.53223 13.2 3.94778 13.2 4.37556C15.1556 4.37556 17.0744 4.37556 19.0667 4.37556C19.0667 3.87445 19.0544 3.36112 19.0667 2.84778C19.1033 1.41778 20.1544 0.24445 21.5967 0.0244499C22.9656 -0.183328 24.3467 0.672228 24.7744 2.02889C24.8722 2.33445 24.9089 2.65223 24.9211 2.97001C24.9456 3.42223 24.9333 3.88667 24.9333 4.37556C26.8889 4.37556 28.82 4.37556 30.8 4.37556C30.8 3.91112 30.8 3.45889 30.8 3.00667C30.8122 1.30778 32.0833 5.49201e-06 33.7333 5.49201e-06C35.3833 5.49201e-06 36.6544 1.29556 36.6667 2.99445C36.6667 3.44667 36.6667 3.89889 36.6667 4.40001C37.8033 4.40001 38.9033 4.40001 40.0033 4.40001C42.4967 4.40001 44 5.90334 44 8.38445C44 14.5078 44 20.6311 44 26.7667C44 26.8156 44 26.8645 44 26.9011C44 27.5245 43.7311 27.8667 43.2667 27.8545C42.8022 27.8545 42.5333 27.5122 42.5333 26.8889C42.5333 23.0145 42.5333 19.1278 42.5333 15.2533C42.5333 15.0822 42.5333 14.9111 42.5333 14.6911ZM7.33333 5.87889C7.12556 5.87889 6.99111 5.87889 6.85667 5.87889C5.74444 5.87889 4.62 5.85445 3.50778 5.89112C2.43222 5.92778 1.50333 6.82001 1.47889 7.89556C1.44222 9.63112 1.46667 11.3789 1.47889 13.1145C1.47889 13.1389 1.51556 13.1633 1.52778 13.1878C15.18 13.1878 28.8322 13.1878 42.5089 13.1878C42.5089 11.3667 42.5578 9.57001 42.4844 7.77334C42.4478 6.79556 41.6044 5.97667 40.6267 5.91556C39.3189 5.84223 38.0111 5.90334 36.6544 5.90334C36.6544 6.38001 36.6544 6.84445 36.6544 7.29667C36.63 8.99556 35.3589 10.2911 33.7089 10.2911C32.0711 10.2911 30.8 8.98334 30.7878 7.28445C30.7878 6.83223 30.7878 6.38001 30.7878 5.92778C28.7956 5.92778 26.8767 5.92778 24.9211 5.92778C24.9211 6.41667 24.9211 6.88112 24.9211 7.33334C24.9089 8.98334 23.6256 10.2667 22 10.2667C20.3744 10.2667 19.0911 8.98334 19.0667 7.32112C19.0544 6.85667 19.0667 6.38001 19.0667 5.90334C17.0867 5.90334 15.1556 5.90334 13.2 5.90334C13.2 6.40445 13.2122 6.86889 13.2 7.34556C13.1756 8.98334 11.8922 10.2667 10.2911 10.2667C8.66556 10.2789 7.37 8.98334 7.33333 7.33334C7.33333 6.86889 7.33333 6.40445 7.33333 5.87889ZM32.2667 5.09667C32.2667 5.83001 32.2544 6.56334 32.2667 7.29667C32.2789 8.15223 32.9022 8.8 33.7211 8.81223C34.54 8.82445 35.1878 8.17667 35.2 7.32112C35.2122 5.86667 35.2122 4.42445 35.2 2.97001C35.1878 2.11445 34.54 1.47889 33.7211 1.47889C32.9022 1.47889 32.2789 2.12667 32.2667 2.99445C32.2544 3.69112 32.2667 4.38778 32.2667 5.09667ZM23.4667 5.14556C23.4667 4.44889 23.4667 3.74001 23.4667 3.04334C23.4544 2.15112 22.8433 1.49112 22.0122 1.49112C21.1811 1.49112 20.5456 2.13889 20.5333 3.01889C20.5211 4.43667 20.5211 5.85445 20.5333 7.28445C20.5333 8.17667 21.1811 8.82445 22.0122 8.82445C22.8433 8.82445 23.4544 8.16445 23.4667 7.27223C23.4667 6.55112 23.4667 5.84223 23.4667 5.14556ZM11.7333 5.14556C11.7333 4.44889 11.7333 3.74001 11.7333 3.04334C11.7211 2.15112 11.11 1.49112 10.2789 1.49112C9.44778 1.49112 8.81222 2.13889 8.8 3.01889C8.8 4.42445 8.8 5.85445 8.8 7.27223C8.8 8.16445 9.44778 8.81223 10.2789 8.81223C11.11 8.8 11.7211 8.14001 11.7333 7.24778C11.7333 6.55112 11.7333 5.84223 11.7333 5.14556Z" fill="#FAAF4A"/>
<path d="M44 34.4911C43.9756 39.7833 39.6856 44.0245 34.4056 44C29.1378 43.9756 24.9212 39.6733 24.9334 34.3567C24.9456 29.15 29.2967 24.8967 34.5767 24.9333C39.7712 24.9822 44.0245 29.2967 44 34.4911ZM34.4789 26.4122C29.9812 26.4245 26.4 30.0178 26.4 34.5156C26.4 38.94 30.0545 42.5578 34.5156 42.5456C38.9034 42.5333 42.5334 38.9033 42.5334 34.5033C42.5334 30.03 38.9156 26.4 34.4789 26.4122Z" fill="#FAAF4A"/>
<path d="M8.81214 23.4789C8.32326 23.4789 7.83437 23.4911 7.34548 23.4789C6.48992 23.4545 5.87881 22.8433 5.86659 22C5.85437 21.2789 5.85437 20.57 5.86659 19.8489C5.87881 18.9689 6.48992 18.37 7.38214 18.3578C8.32326 18.3456 9.27659 18.3456 10.2177 18.3578C11.0977 18.37 11.7088 18.9811 11.721 19.8611C11.7333 20.5578 11.7333 21.2667 11.721 21.9633C11.7088 22.8678 11.0977 23.4667 10.181 23.4789C9.72881 23.4789 9.27659 23.4789 8.81214 23.4789ZM7.3577 21.9756C8.3477 21.9756 9.30103 21.9756 10.2299 21.9756C10.2299 21.23 10.2299 20.5333 10.2299 19.8367C9.25214 19.8367 8.31103 19.8367 7.3577 19.8367C7.3577 20.5456 7.3577 21.2422 7.3577 21.9756Z" fill="#FAAF4A"/>
<path d="M17.6 18.3456C18.0889 18.3456 18.5777 18.3333 19.0666 18.3456C19.8977 18.37 20.5089 18.9689 20.5211 19.8C20.5333 20.5333 20.5333 21.2667 20.5211 22C20.5089 22.8311 19.8977 23.4545 19.0789 23.4667C18.0889 23.4789 17.0989 23.4789 16.0966 23.4667C15.29 23.4545 14.6789 22.8311 14.6666 22.0367C14.6544 21.2911 14.6544 20.5456 14.6666 19.7878C14.6789 18.9567 15.3022 18.3578 16.1333 18.3456C16.6222 18.3333 17.1111 18.3456 17.6 18.3456ZM19.0422 19.8367C18.0522 19.8367 17.1111 19.8367 16.1577 19.8367C16.1577 20.57 16.1577 21.2789 16.1577 21.9756C17.1355 21.9756 18.0889 21.9756 19.0422 21.9756C19.0422 21.2422 19.0422 20.5456 19.0422 19.8367Z" fill="#FAAF4A"/>
<path d="M26.4122 23.4789C25.9234 23.4789 25.4345 23.4911 24.9456 23.4789C24.09 23.4545 23.4789 22.8433 23.4667 22C23.4545 21.2789 23.4545 20.57 23.4667 19.8489C23.4789 18.9689 24.09 18.37 24.9822 18.3578C25.9234 18.3456 26.8767 18.3456 27.8178 18.3578C28.6978 18.37 29.3089 18.9811 29.3211 19.8611C29.3334 20.5578 29.3334 21.2667 29.3211 21.9633C29.3089 22.8678 28.6978 23.4667 27.7811 23.4789C27.3289 23.4789 26.8767 23.4789 26.4122 23.4789ZM27.8422 19.8367C26.8522 19.8367 25.9111 19.8367 24.97 19.8367C24.97 20.57 24.97 21.2789 24.97 21.9878C25.9478 21.9878 26.8889 21.9878 27.8422 21.9878C27.8422 21.2667 27.8422 20.57 27.8422 19.8367Z" fill="#FAAF4A"/>
<path d="M35.2001 23.4789C34.7112 23.4789 34.2223 23.4911 33.7334 23.4789C32.9023 23.4545 32.2912 22.8433 32.2789 22.0245C32.2667 21.2911 32.2667 20.5578 32.2789 19.8245C32.2912 18.9689 32.9023 18.37 33.7701 18.3578C34.7356 18.3456 35.6889 18.3456 36.6545 18.3578C37.5101 18.37 38.1212 18.9811 38.1334 19.8367C38.1456 20.5578 38.1456 21.2667 38.1334 21.9878C38.1212 22.8678 37.5101 23.4667 36.6178 23.4789C36.1412 23.4789 35.6645 23.4789 35.2001 23.4789ZM36.6423 19.8367C35.6523 19.8367 34.7112 19.8367 33.7701 19.8367C33.7701 20.57 33.7701 21.2789 33.7701 21.9756C34.7478 21.9756 35.6889 21.9756 36.6423 21.9756C36.6423 21.2667 36.6423 20.57 36.6423 19.8367Z" fill="#FAAF4A"/>
<path d="M17.6122 36.6789C17.1355 36.6789 16.6711 36.6911 16.1944 36.6789C15.3144 36.6667 14.6911 36.0556 14.6788 35.1878C14.6666 34.4667 14.6666 33.7578 14.6788 33.0367C14.6911 32.1811 15.3022 31.57 16.1577 31.5578C17.1233 31.5456 18.0766 31.5456 19.0422 31.5578C19.9222 31.57 20.5211 32.1811 20.5333 33.0733C20.5455 33.77 20.5455 34.4789 20.5333 35.1756C20.5211 36.0556 19.91 36.6667 19.03 36.6789C18.5533 36.6789 18.0766 36.6789 17.6122 36.6789ZM16.1577 35.1756C17.1477 35.1756 18.0888 35.1756 19.03 35.1756C19.03 34.4422 19.03 33.7333 19.03 33.0367C18.0522 33.0367 17.1111 33.0367 16.1577 33.0367C16.1577 33.7456 16.1577 34.4422 16.1577 35.1756Z" fill="#FAAF4A"/>
<path d="M8.79991 36.6789C8.31102 36.6789 7.82213 36.6911 7.33324 36.6789C6.50213 36.6544 5.89102 36.0433 5.8788 35.2244C5.86657 34.4911 5.86657 33.7578 5.8788 33.0244C5.89102 32.1689 6.50213 31.57 7.36991 31.5578C8.33546 31.5456 9.2888 31.5456 10.2544 31.5578C11.1099 31.57 11.721 32.1811 11.7332 33.0367C11.7455 33.7578 11.7455 34.4667 11.7332 35.1878C11.721 36.0678 11.1099 36.6667 10.2177 36.6789C9.74102 36.6789 9.26435 36.6789 8.79991 36.6789ZM7.35768 35.1756C8.33546 35.1756 9.27657 35.1756 10.2421 35.1756C10.2421 34.4422 10.2421 33.7333 10.2421 33.0367C9.26435 33.0367 8.31102 33.0367 7.35768 33.0367C7.35768 33.77 7.35768 34.4667 7.35768 35.1756Z" fill="#FAAF4A"/>
<path d="M8.82448 24.9456C9.31337 24.9456 9.80226 24.9333 10.2912 24.9456C11.0978 24.97 11.7089 25.5689 11.7334 26.3756C11.7578 27.1333 11.7578 27.9033 11.7334 28.6611C11.7089 29.4433 11.0978 30.0544 10.3156 30.0667C9.31337 30.0911 8.29893 30.0911 7.29671 30.0667C6.51448 30.0544 5.90337 29.4433 5.87893 28.6611C5.85448 27.9033 5.85448 27.1333 5.87893 26.3756C5.90337 25.5689 6.51448 24.97 7.32115 24.9456C7.81004 24.9333 8.32337 24.9456 8.82448 24.9456ZM10.2423 28.5878C10.2423 27.8544 10.2423 27.1456 10.2423 26.4489C9.26449 26.4489 8.31115 26.4489 7.35782 26.4489C7.35782 27.1822 7.35782 27.8789 7.35782 28.5878C8.32337 28.5878 9.25226 28.5878 10.2423 28.5878Z" fill="#FAAF4A"/>
<path d="M17.6245 24.9456C18.1134 24.9456 18.6023 24.9333 19.0912 24.9456C19.8979 24.97 20.509 25.5689 20.5334 26.3756C20.5579 27.1333 20.5579 27.9033 20.5334 28.6611C20.509 29.4433 19.8979 30.0422 19.1156 30.0667C18.1134 30.0911 17.099 30.0911 16.0968 30.0667C15.3145 30.0544 14.7034 29.4433 14.679 28.6611C14.6545 27.9033 14.6545 27.1333 14.679 26.3756C14.7034 25.5689 15.3145 24.97 16.1212 24.9456C16.6101 24.9333 17.1234 24.9456 17.6245 24.9456ZM19.0301 28.5878C19.0301 27.8422 19.0301 27.1456 19.0301 26.4489C18.0523 26.4489 17.099 26.4489 16.1579 26.4489C16.1579 27.1822 16.1579 27.8789 16.1579 28.5878C17.1234 28.5878 18.0645 28.5878 19.0301 28.5878Z" fill="#FAAF4A"/>
<path d="M24.9455 26.4122C24.9455 27.17 24.9455 27.8544 24.9455 28.5633C25.031 28.6 25.1288 28.6367 25.2266 28.6856C25.5688 28.8567 25.7399 29.1378 25.6421 29.5044C25.5444 29.8956 25.2632 30.0789 24.8599 30.0789C24.1388 30.0667 23.491 29.4433 23.4666 28.6856C23.4421 27.9033 23.4421 27.1211 23.4666 26.3511C23.491 25.5689 24.1021 24.97 24.8844 24.9578C25.8621 24.9333 26.8399 24.9456 27.8177 24.9578C28.2821 24.9578 28.5877 25.2756 28.5877 25.6911C28.5877 26.1067 28.2699 26.4122 27.8055 26.4122C26.8766 26.4122 25.9232 26.4122 24.9455 26.4122Z" fill="#FAAF4A"/>
<path d="M33.0123 37.0944C34.8457 35.2611 36.6301 33.4767 38.4268 31.68C38.9768 31.13 39.3557 31.0567 39.7223 31.3989C40.1012 31.7656 40.0279 32.1567 39.4657 32.7189C37.5712 34.6133 35.6646 36.52 33.7701 38.4144C33.1712 39.0133 32.8657 39.0256 32.279 38.4267C31.3623 37.51 30.4334 36.6056 29.5412 35.6644C29.3579 35.4689 29.199 35.1267 29.2234 34.87C29.2968 34.2711 30.0179 34.1 30.4946 34.5644C31.2279 35.2733 31.949 36.0067 32.6701 36.7278C32.7557 36.85 32.8657 36.9478 33.0123 37.0944Z" fill="#FAAF4A"/>
</svg>
