<svg width="16" height="20" viewBox="0 0 16 20" fill="none" xmlns="http://www.w3.org/2000/svg">
<path d="M6.0833 0C6.46717 0.114553 6.85637 0.2239 7.24025 0.354074C7.97067 0.604009 8.64778 0.94767 9.23958 1.43192C10.3859 2.35876 10.9137 3.58761 11.0416 5.0039C11.1376 6.05051 10.9937 7.08149 10.8604 8.11247C10.7591 8.8779 10.6151 9.64332 10.7164 10.4244C10.7324 10.5389 10.7537 10.6587 10.7804 10.768C11.063 11.825 12.2519 12.1687 13.073 11.4137C13.2702 11.2367 13.4302 11.0075 13.5581 10.7784C13.8514 10.2369 14.0113 9.65373 14.006 9.03931C14.006 8.8831 14.0593 8.75293 14.2086 8.69044C14.3632 8.62275 14.4965 8.66441 14.6245 8.78417C15.3709 9.48711 15.7707 10.3515 15.92 11.3408C16.2559 13.5798 15.4828 15.4699 13.974 17.0997C12.5718 18.6149 10.8284 19.5626 8.75441 19.9063C5.25691 20.479 1.70609 18.4535 0.485165 15.1888C-0.138627 13.5277 -0.170616 11.8511 0.437181 10.1848C0.698427 9.46108 1.02365 8.76334 1.31689 8.05519C1.39153 7.88336 1.51416 7.77402 1.71675 7.80526C1.92469 7.84171 1.97267 7.9875 2.00999 8.16975C2.06864 8.44572 2.12728 8.7321 2.24458 8.99245C2.40452 9.35694 2.6871 9.48711 3.0763 9.36735C3.35887 9.28404 3.63611 9.15386 3.88137 8.99245C4.71842 8.42489 5.44351 7.71674 5.88603 6.82635C6.80839 4.96225 7.04831 3.07212 5.81139 1.21843C5.65677 0.989326 5.49683 0.770633 5.33155 0.55194C5.1876 0.359281 5.25158 0.161416 5.52349 0C5.71009 0 5.89669 0 6.0833 0ZM6.33388 0.765426C6.38187 0.848737 6.39786 0.885186 6.41919 0.916428C7.74141 2.94194 7.50682 4.9987 6.53115 7.05025C6.16327 7.82609 5.5768 8.45613 4.93701 9.0341C4.46251 9.46108 3.95068 9.83077 3.31622 10.0026C2.58047 10.2005 2.00466 9.96095 1.63678 9.30487C1.61545 9.26321 1.58347 9.22676 1.55148 9.17469C-0.394542 13.1893 1.30622 16.3239 3.26291 17.8183C3.26824 17.8131 3.27357 17.8027 3.26824 17.8027C3.25224 17.761 3.23092 17.7193 3.21492 17.6777C3.01765 17.2559 2.8897 16.8133 2.84171 16.3499C2.72442 15.3085 3.09763 14.3817 3.53482 13.4652C3.60946 13.3142 3.73741 13.2413 3.91336 13.2726C4.07863 13.2986 4.15861 13.4132 4.19593 13.5642C4.22259 13.6839 4.24924 13.8037 4.28123 13.9235C4.33455 14.0953 4.46251 14.1474 4.62245 14.0797C4.7664 14.0172 4.91036 13.9391 5.03831 13.8506C5.76341 13.3247 6.15794 12.6113 6.2859 11.7469C6.31789 11.523 6.32322 11.2939 6.29656 11.07C6.23791 10.5754 5.97667 10.1536 5.70476 9.74225C5.64078 9.64332 5.61945 9.4819 5.64611 9.36735C5.68343 9.21114 5.83805 9.14345 5.99266 9.17469C6.32322 9.24238 6.65911 9.29445 6.97367 9.41421C8.13062 9.84639 8.80772 10.6587 8.94101 11.8875C9.01032 12.5384 8.89836 13.1737 8.83438 13.8089C8.79706 14.1838 8.77573 14.5639 8.81839 14.9336C8.8717 15.3554 9.33022 15.5116 9.68743 15.2616C9.7834 15.194 9.86337 15.1002 9.92202 15.0013C10.098 14.7097 10.1833 14.3973 10.1939 14.0536C10.1993 13.9443 10.2899 13.7985 10.3805 13.7516C10.4658 13.7048 10.6151 13.7516 10.7271 13.7881C10.7911 13.8089 10.8337 13.8818 10.887 13.9339C11.3615 14.4337 11.5375 15.0482 11.5535 15.7042C11.5801 16.9227 11.0363 17.8964 10.1513 18.7191C10.0926 18.7712 10.034 18.8232 9.97533 18.8753C10.066 18.8857 10.1353 18.8649 10.1993 18.8388C11.0203 18.5368 11.7827 18.1203 12.4652 17.5788C14.038 16.3291 15.1203 14.793 15.2962 12.7623C15.3762 11.8146 15.2589 10.893 14.7737 10.0391C14.7364 9.97136 14.6831 9.90367 14.6245 9.80994C14.5818 9.97136 14.5551 10.0911 14.5232 10.2057C14.3099 10.9294 13.99 11.5959 13.3449 12.0594C12.1026 12.9498 10.4872 12.3718 10.1246 10.919C10.002 10.4296 9.97 9.9297 10.0233 9.42463C10.1353 8.37282 10.2792 7.32101 10.3752 6.26399C10.4605 5.36319 10.3912 4.46759 10.05 3.61364C9.39419 1.98386 8.00266 1.24967 6.33388 0.765426ZM10.7377 14.9649C10.5831 15.194 10.4658 15.4231 10.2952 15.6105C9.93801 16.0062 9.47417 16.126 8.95167 15.9854C8.45051 15.85 8.19993 15.4803 8.12528 15.0065C8.0773 14.7097 8.08263 14.3973 8.10396 14.0953C8.14661 13.4392 8.2639 12.7883 8.26924 12.1375C8.27457 11.1325 7.75208 10.4452 6.80306 10.0651C6.76574 10.0495 6.72309 10.0495 6.65911 10.0338C7.01632 10.7524 7.07497 11.4553 6.88836 12.2052C6.64311 13.2049 6.09396 13.9807 5.21959 14.5379C4.95834 14.7045 4.67044 14.8243 4.35054 14.7566C4.16394 14.7201 3.99333 14.616 3.81206 14.5431C3.53482 15.1992 3.42818 15.8709 3.54015 16.4488C3.93468 18.4327 5.36354 19.4012 7.30422 19.2762C8.87703 19.1773 10.0233 18.2869 10.6631 16.8602C10.9403 16.2562 10.9403 15.6157 10.7377 14.9649Z" fill="white"/>
</svg>
