<svg width="12" height="14" viewBox="0 0 12 14" fill="none" xmlns="http://www.w3.org/2000/svg">
<g clip-path="url(#clip0_330_1400)">
<path d="M1 2.54545C0.825 2.54545 0.675 2.54545 0.525 2.54545C0.220833 2.54121 0 2.3206 0 2.03212C0 1.74363 0.225 1.52727 0.529167 1.52727C2.525 1.52727 4.51667 1.52727 6.5125 1.52727C8.15833 1.52727 9.80417 1.52727 11.45 1.52727C11.8375 1.52727 12.0875 1.85393 11.9667 2.20181C11.8958 2.40121 11.7208 2.53696 11.5042 2.54121C11.3417 2.54545 11.1833 2.54121 10.9958 2.54121C10.9958 2.61333 10.9958 2.68121 10.9958 2.74484C10.9958 5.78666 10.9958 8.83272 10.9958 11.8745C10.9958 12.8885 10.3458 13.72 9.38333 13.9406C9.23333 13.9745 9.075 13.9915 8.92083 13.9915C6.975 13.9958 5.025 13.9958 3.07917 13.9915C1.90417 14 1 13.0794 1 11.883C1 8.84121 1 5.79515 1 2.75333C1 2.68969 1 2.62606 1 2.54545ZM2 2.55393C2 2.62181 2 2.67696 2 2.72787C2 5.76121 2 8.79454 2 11.8279C2 12.5448 2.4375 12.9861 3.14167 12.9861C5.04583 12.9861 6.95417 12.9861 8.85833 12.9861C9.5625 12.9861 10 12.5448 10 11.8279C10 8.79454 10 5.76121 10 2.72787C10 2.67272 10 2.61333 10 2.55393C7.325 2.55393 4.67083 2.55393 2 2.55393Z" fill="#E11F3C"/>
<path d="M6.00838 1.01818C5.34588 1.01818 4.68755 1.02242 4.02505 1.01818C3.62505 1.01394 3.37922 0.623636 3.55838 0.275758C3.66255 0.0763636 3.82922 0 4.04588 0C5.25005 0 6.45005 0 7.65422 0C7.75422 0 7.85005 0 7.95005 0C8.26672 0.00424242 8.49588 0.212121 8.49588 0.504848C8.49588 0.801818 8.27088 1.01394 7.95422 1.01818C7.30838 1.01818 6.65838 1.01818 6.00838 1.01818Z" fill="#E11F3C"/>
<path d="M3.75 7.87394C3.75 7.05939 3.75 6.2406 3.75 5.42606C3.75 5.06969 3.94583 4.8406 4.24583 4.83636C4.54583 4.83212 4.75 5.06545 4.75 5.41757C4.75 7.07636 4.75 8.73515 4.75 10.3982C4.75 10.6273 4.65833 10.8012 4.45833 10.8988C4.26667 10.9921 4.08333 10.9582 3.92083 10.8182C3.79167 10.7079 3.75 10.5594 3.75 10.3939C3.75 9.54969 3.75 8.71394 3.75 7.87394Z" fill="#E11F3C"/>
<path d="M7.25 7.88243C7.25 7.03819 7.25 6.19819 7.25 5.35394C7.25 5.08243 7.4375 4.87031 7.69167 4.84061C7.9375 4.81091 8.17083 4.97213 8.23333 5.22243C8.25 5.28182 8.25 5.3497 8.25 5.4091C8.25 7.06364 8.25 8.71819 8.25 10.3727C8.25 10.7121 8.05 10.9412 7.75417 10.9455C7.45417 10.9497 7.25 10.7121 7.25 10.3642C7.25 9.53698 7.25 8.7097 7.25 7.88243Z" fill="#E11F3C"/>
</g>
<defs>
<clipPath id="clip0_330_1400">
<rect width="12" height="14" fill="white"/>
</clipPath>
</defs>
</svg>
