<svg width="12" height="23" viewBox="0 0 12 23" fill="none" xmlns="http://www.w3.org/2000/svg">
<path d="M11.5561 0C11.9 0.179617 12.004 0.489457 12 0.907068C11.984 2.23175 11.996 3.55642 11.996 4.8811C11.996 5.42444 11.7721 5.67142 11.2842 5.67591C10.3246 5.67591 9.36488 5.67591 8.4052 5.67591C8.32522 5.67591 8.24925 5.67591 8.15328 5.67591C8.15328 6.67727 8.15328 7.6517 8.15328 8.66205C8.22526 8.66205 8.29324 8.66205 8.36521 8.66205C9.34489 8.66205 10.3246 8.66205 11.3042 8.66205C11.8121 8.66205 12.06 8.99883 11.96 9.56013C11.7161 10.9387 11.4722 12.3173 11.2283 13.6913C11.1483 14.1359 10.9404 14.3245 10.5325 14.3245C9.82073 14.3245 9.10497 14.3245 8.3932 14.3245C8.32123 14.3245 8.24925 14.3245 8.15328 14.3245C8.14928 14.4323 8.13729 14.5221 8.13729 14.6164C8.13729 17.113 8.13729 19.6142 8.13729 22.1109C8.13729 22.7575 7.93336 22.982 7.35355 22.982C6.20593 22.982 5.06231 22.9596 3.9147 22.991C3.2869 23.009 3.06698 22.6542 3.07098 22.057C3.08697 19.5828 3.07897 17.1041 3.07897 14.6298C3.07897 14.54 3.07897 14.4502 3.07897 14.3245C2.999 14.3245 2.93102 14.3245 2.85905 14.3245C2.13129 14.3245 1.40753 14.3245 0.679773 14.3245C0.227924 14.329 0 14.0685 0 13.5521C0 12.1736 0 10.7995 0 9.42093C0 8.92249 0.235921 8.66205 0.675775 8.66205C1.39553 8.66205 2.1153 8.66205 2.83506 8.66205C2.90703 8.66205 2.97901 8.66205 3.07897 8.66205C3.07897 8.55877 3.07897 8.47345 3.07897 8.38813C3.07897 7.06345 3.07897 5.73877 3.07897 4.4141C3.07897 2.12398 4.40653 0.386177 6.42186 0.0359235C6.45385 0.031433 6.48584 0.0134713 6.51383 0C8.19727 0 9.87671 0 11.5561 0ZM10.6564 10.0092C10.5605 10.0092 10.4885 10.0092 10.4165 10.0092C9.49683 10.0092 8.57714 10.0092 7.65745 10.0092C7.16561 10.0092 6.93769 9.75322 6.93769 9.19641C6.93769 7.8403 6.93769 6.48868 6.93769 5.13257C6.93769 4.57575 7.16161 4.32878 7.66145 4.32429C8.62113 4.32429 9.58081 4.32429 10.5405 4.32429C10.6165 4.32429 10.6964 4.32429 10.7844 4.32429C10.7844 3.31843 10.7844 2.34401 10.7844 1.35162C10.7284 1.34713 10.6844 1.34264 10.6405 1.34264C9.37288 1.34264 8.1093 1.34264 6.84172 1.34713C6.67777 1.34713 6.50983 1.36958 6.34588 1.41C5.13029 1.71086 4.28657 2.88286 4.28257 4.28387C4.27857 5.93186 4.28257 7.57536 4.28257 9.22335C4.28257 9.74424 4.05065 10.0047 3.57881 10.0047C2.85905 10.0047 2.13929 10.0047 1.41953 10.0047C1.35155 10.0047 1.27957 10.0047 1.21559 10.0047C1.21559 11.015 1.21559 11.9939 1.21559 12.9774C1.99533 12.9774 2.76308 12.9774 3.52682 12.9774C4.06664 12.9774 4.28257 13.2153 4.28257 13.8126C4.28257 16.3272 4.28257 18.8419 4.28257 21.3565C4.28257 21.4418 4.28257 21.5316 4.28257 21.6259C5.17827 21.6259 6.04599 21.6259 6.94169 21.6259C6.94169 21.5226 6.94169 21.4283 6.94169 21.3296C6.94169 18.8239 6.94169 16.3137 6.94169 13.8081C6.94169 13.2198 7.16161 12.9729 7.67744 12.9729C8.43719 12.9729 9.19693 12.9684 9.95668 12.9774C10.0806 12.9774 10.1406 12.9504 10.1686 12.7932C10.2486 12.2948 10.3446 11.7964 10.4325 11.2979C10.5085 10.8803 10.5805 10.4582 10.6564 10.0092Z" fill="#2A7891"/>
</svg>
