<svg width="36" height="36" viewBox="0 0 36 36" fill="none" xmlns="http://www.w3.org/2000/svg">
<g clip-path="url(#clip0_238_2048)">
<path d="M23.9299 8.16772C23.2294 8.39766 22.5588 8.67758 21.8582 8.83754C20.9174 9.05748 19.9666 8.94751 19.0359 8.68758C18.1351 8.42765 17.2344 8.16772 16.3236 7.93779C15.3128 7.68786 14.422 7.23798 13.8315 6.35823C13.7915 6.36822 13.7515 6.35823 13.7415 6.37822C13.1209 7.24798 12.2402 7.69785 11.2294 7.94778C10.1785 8.20771 9.13762 8.53762 8.08675 8.78755C6.69559 9.11746 5.35447 8.92751 4.08341 8.28769C3.96331 8.22771 3.84321 8.16772 3.68308 8.07775C3.67307 8.16772 3.65305 8.21771 3.65305 8.2677C3.76314 10.837 3.89325 13.4163 4.58383 15.9156C4.83404 16.8153 4.58383 17.6051 4.45372 18.4449C4.16348 20.3343 3.88324 22.2238 3.60301 24.1133C3.60301 24.1333 3.61302 24.1633 3.64304 24.2832C4.6739 24.5532 5.7548 24.8831 6.84571 25.123C8.9875 25.5929 11.1693 25.7728 13.3611 25.8028C13.5013 25.8028 13.6414 25.8028 13.7715 25.8128C14.1518 25.8328 14.392 26.0827 14.392 26.4227C14.382 26.7726 14.1418 27.0125 13.7515 27.0025C12.4504 26.9525 11.1493 26.9125 9.85822 26.7925C7.6764 26.6026 5.53462 26.1727 3.46289 25.4429C3.43287 25.4329 3.39283 25.4329 3.27273 25.4229C3.08258 26.2427 2.82236 27.0725 2.70226 27.9122C2.54213 29.1419 2.47207 30.3915 2.392 31.6412C2.36198 32.1111 2.17182 32.391 1.80151 32.401C1.42119 32.411 1.191 32.1211 1.191 31.6312C1.22102 29.2219 1.49125 26.8525 2.33195 24.5632C2.52211 24.0333 2.44204 23.4035 2.53212 22.8237C2.83237 20.9842 3.16264 19.1547 3.46289 17.3252C3.51293 17.0353 3.51293 16.7054 3.44288 16.4154C3.00251 14.6259 2.76231 12.8064 2.6322 10.9769C2.54213 9.76728 2.50209 8.55762 2.42203 7.34795C2.41202 7.168 2.33195 6.95806 2.21185 6.8181C1.65138 6.11829 1.23103 5.33851 1.00084 4.46875C0.670566 3.26908 0.350299 2.07942 0.0400403 0.879749C-0.0800597 0.429874 0.0800737 0.109962 0.440374 0.0199874C0.780657 -0.0699876 1.0709 0.139954 1.191 0.569835C1.51127 1.74951 1.82152 2.92918 2.14179 4.10885C2.8724 6.77811 5.44454 8.2577 8.10676 7.5479C9.18766 7.25798 10.2786 6.95806 11.3595 6.64815C12.5204 6.31824 13.181 5.41849 13.191 4.20882C13.191 3.84892 13.191 3.48902 13.191 3.11913C13.201 2.66925 13.4212 2.39933 13.7815 2.39933C14.1418 2.39933 14.382 2.66925 14.392 3.10913C14.402 3.51902 14.392 3.9289 14.392 4.34878C14.412 5.33851 14.9925 6.24826 15.9233 6.53818C17.2544 6.95806 18.5955 7.37794 19.9666 7.63787C22.4187 8.11774 24.7506 6.60816 25.4212 4.19883C25.7615 2.99916 26.0617 1.7895 26.392 0.579832C26.5121 0.129957 26.8123 -0.0799848 27.1626 0.0199874C27.5229 0.129957 27.6631 0.439871 27.543 0.899743C27.2227 2.1194 26.8924 3.33907 26.5621 4.54873C26.342 5.3785 25.9316 6.11829 25.3912 6.78811C25.2711 6.93807 25.191 7.158 25.181 7.34795C25.0008 9.47736 24.8407 11.6068 24.6706 13.7362C24.6606 13.8062 24.6505 13.8861 24.6305 13.9561C24.5505 14.336 24.2802 14.5559 23.95 14.506C23.6097 14.456 23.4095 14.1861 23.4495 13.7962C23.5096 13.2163 23.5997 12.6365 23.6497 12.0466C23.7498 10.827 23.8299 9.60732 23.9199 8.38766C23.9299 8.30768 23.9299 8.21771 23.9299 8.16772Z" fill="#2A7891"/>
<path d="M13.171 16.1955C13.171 15.1958 13.171 14.226 13.171 13.2063C13.0409 13.2063 12.9108 13.2063 12.7807 13.2063C11.7198 13.2063 10.6589 13.2163 9.588 13.2063C8.67724 13.1963 7.95664 12.5665 7.80651 11.6868C7.72645 11.2169 7.91661 10.877 8.29692 10.817C8.65722 10.757 8.89742 10.9869 8.99751 11.4668C9.05756 11.8067 9.26773 12.0067 9.61802 12.0067C10.789 12.0167 11.97 12.0067 13.201 12.0067C13.201 11.5668 13.201 11.1369 13.201 10.697C13.201 10.5571 13.201 10.4271 13.201 10.2871C13.211 9.86726 13.4412 9.61733 13.7915 9.60733C14.1418 9.60733 14.392 9.86726 14.392 10.2771C14.402 10.837 14.392 11.3968 14.392 11.9767C14.4921 11.9867 14.5822 12.0067 14.6622 12.0067C15.7231 12.0067 16.784 12.0067 17.8549 12.0067C18.3453 12.0067 18.5154 11.8567 18.6055 11.3668C18.6756 11.0069 18.9258 10.787 19.246 10.817C19.5863 10.847 19.8065 11.1169 19.7965 11.4968C19.7765 12.4166 18.9758 13.1963 18.005 13.2063C16.9541 13.2163 15.9033 13.2063 14.8524 13.2063C14.7123 13.2063 14.5822 13.2063 14.422 13.2063C14.422 14.2061 14.422 15.1858 14.422 16.2055C15.4329 16.2055 16.4437 16.2155 17.4546 16.1955C17.7848 16.1855 17.955 15.9556 18.005 15.6257C18.0751 15.1858 18.3453 14.9558 18.6956 15.0158C19.0459 15.0758 19.246 15.3857 19.196 15.8156C19.0959 16.7054 18.3453 17.3852 17.4345 17.4052C16.5738 17.4252 15.7131 17.4052 14.8424 17.4052C14.7023 17.4052 14.5722 17.4052 14.412 17.4052C14.412 18.4149 14.412 19.3946 14.412 20.3643C15.3928 20.4943 15.613 20.6143 15.593 21.0242C15.573 21.424 15.3428 21.544 14.392 21.624C14.392 22.1838 14.402 22.7537 14.392 23.3235C14.382 23.7834 14.0317 24.0933 13.6414 23.9733C13.3211 23.8734 13.191 23.6434 13.191 23.3135C13.191 22.7537 13.191 22.1938 13.191 21.594C12.3603 21.594 11.5696 21.604 10.769 21.594C9.87824 21.584 9.16765 20.9642 9.00751 20.0944C8.9875 20.0044 8.9875 19.9245 8.9875 19.8345C8.99751 19.4746 9.2277 19.2247 9.54797 19.2047C9.85822 19.1847 10.1084 19.3946 10.1785 19.7245C10.2886 20.2844 10.4287 20.3943 10.9792 20.3943C11.6998 20.3943 12.4204 20.3943 13.171 20.3943C13.171 19.3946 13.171 18.4249 13.171 17.3952C13.0609 17.3952 12.9508 17.3952 12.8307 17.3952C11.94 17.3952 11.0592 17.4052 10.1685 17.3952C9.19767 17.3752 8.39701 16.5854 8.39701 15.6656C8.39701 15.3057 8.60718 15.0458 8.92745 15.0058C9.24771 14.9658 9.51794 15.1858 9.588 15.5357C9.59801 15.5957 9.57799 15.6856 9.60802 15.7156C9.77816 15.8856 9.9483 16.1655 10.1284 16.1655C11.1293 16.2155 12.1401 16.1955 13.171 16.1955Z" fill="#2A7891"/>
<path d="M28.764 24.1933C29.0242 23.8134 29.2244 23.5335 29.4045 23.2336C29.7348 22.6737 30.1952 22.6337 30.5755 23.1736C32.0567 25.223 32.1168 27.4024 31.176 29.6718C31.0059 30.0816 30.7657 30.4715 30.5355 30.8514C30.3153 31.2113 29.975 31.2913 29.6748 31.0914C29.3745 30.9014 29.3045 30.5615 29.5346 30.2016C30.0851 29.3319 30.4454 28.4021 30.5655 27.3724C30.6856 26.3827 30.4654 25.4429 30.0651 24.5932C29.5947 24.9431 29.1643 25.323 28.6739 25.6029C28.0034 25.9928 27.613 25.7229 27.583 24.9431C27.533 23.4935 27.1226 22.1838 25.9316 21.2341C25.6914 21.0442 25.4212 20.8942 25.0809 20.6843C25.3011 21.554 25.3412 22.3338 25.181 23.1136C24.9909 24.0333 24.5605 24.8131 23.91 25.4929C23.6397 25.7728 23.3395 25.8728 23.0092 25.6629C22.4988 25.333 22.0184 24.9731 21.508 24.6032C21.0276 25.6029 20.8474 26.7026 21.0976 27.8623C21.2678 28.692 21.588 29.4518 22.0384 30.1716C22.2886 30.5715 22.1885 30.9514 21.8182 31.1114C21.518 31.2413 21.2678 31.1514 21.0876 30.9014C19.6364 28.752 19.126 25.7229 20.9475 23.2136C21.4079 22.5837 21.8082 22.6237 22.2286 23.2835C22.4888 23.7034 22.8291 24.0633 23.1693 24.4932C23.8499 23.7034 24.1201 22.8836 24.0901 21.9439C24.0701 21.3241 23.8899 20.7442 23.5497 20.2144C23.3795 19.9545 23.2894 19.6945 23.4896 19.4146C23.6898 19.1447 23.96 19.1447 24.2603 19.2047C26.5622 19.6645 28.2236 21.3441 28.6539 23.6634C28.704 23.8234 28.724 23.9434 28.764 24.1933Z" fill="#2A7891"/>
<path d="M31.8065 17.5551C31.8065 17.2552 31.7965 17.0353 31.8065 16.8053C31.8265 16.4454 32.0667 16.2055 32.397 16.1955C32.7273 16.1955 32.9975 16.4254 32.9975 16.7853C33.0075 17.5851 33.0075 18.3849 32.9975 19.1847C32.9875 19.5546 32.7573 19.7845 32.3669 19.7845C31.5963 19.7945 30.8157 19.7945 30.045 19.7845C29.6547 19.7845 29.4045 19.5346 29.4045 19.1947C29.4045 18.8448 29.6647 18.5948 30.075 18.5948C30.3953 18.5848 30.7256 18.5948 31.0859 18.5149C30.7556 18.3049 30.4453 18.085 30.1051 17.905C24.7606 15.0158 18.2452 18.015 16.9841 23.9633C16.5438 26.0428 16.844 28.0322 17.8148 29.9217C17.8749 30.0317 17.9349 30.1416 17.995 30.2516C18.1651 30.6115 18.085 30.9314 17.7948 31.1014C17.4845 31.2813 17.1543 31.1813 16.9441 30.8214C16.3636 29.8217 15.9633 28.742 15.7631 27.6023C14.8023 22.2038 18.2051 17.0453 23.5596 15.8456C26.382 15.2158 29.0242 15.7356 31.4462 17.3052C31.5463 17.3852 31.6463 17.4452 31.8065 17.5551Z" fill="#2A7891"/>
<path d="M19.7965 34.0905C19.7965 34.3305 19.8065 34.5504 19.7965 34.7703C19.7765 35.1302 19.5363 35.3702 19.216 35.3802C18.8758 35.3902 18.6155 35.1402 18.6055 34.7603C18.5955 33.9706 18.5955 33.1908 18.6055 32.401C18.6155 32.0211 18.8457 31.8012 19.226 31.7912C20.0167 31.7812 20.7974 31.7812 21.588 31.7912C21.9483 31.8012 22.1885 32.0511 22.1985 32.371C22.2085 32.7109 21.9583 32.9608 21.578 32.9808C21.4079 32.9908 21.2277 32.9808 21.0576 32.9808C20.8974 32.9808 20.7373 32.9808 20.4571 32.9808C20.6172 33.1008 20.7073 33.1808 20.7974 33.2408C26.1318 36.8798 33.588 33.7306 34.6789 27.3724C35.0292 25.293 34.7089 23.3235 33.7081 21.474C33.6781 21.4241 33.6481 21.3641 33.618 21.3041C33.4479 20.9542 33.538 20.6243 33.8382 20.4643C34.1385 20.2944 34.4687 20.3943 34.6689 20.7342C35.2094 21.654 35.5897 22.6437 35.7999 23.6934C36.9408 29.3718 33.3878 34.7104 27.6931 35.8001C24.9909 36.3199 22.4788 35.7601 20.1768 34.2605C20.0868 34.2005 19.9867 34.1405 19.8966 34.0805C19.8666 34.0805 19.8566 34.0905 19.7965 34.0905Z" fill="#2A7891"/>
<path d="M24.2703 29.1719C24.3704 29.6018 24.4204 29.9417 24.5205 30.2716C24.6506 30.6915 24.5605 31.0114 24.2202 31.1514C23.89 31.2913 23.5697 31.1214 23.4096 30.7115C23.0693 29.8617 23.0593 29.0119 23.3795 28.1522C23.6197 27.5224 24 27.4324 24.5205 27.8523C24.6005 27.9123 24.6806 27.9622 24.7907 28.0422C24.9208 27.5923 24.8608 27.1825 24.7106 26.7826C24.6005 26.4926 24.5405 26.2227 24.7707 25.9828C25.0009 25.7329 25.2811 25.7828 25.5714 25.8628C28.0034 26.5426 28.9642 28.5621 28.2035 30.7115C28.0935 31.0114 27.8933 31.2513 27.573 31.1713C27.3729 31.1214 27.1527 30.9214 27.0426 30.7315C26.9725 30.6115 27.0626 30.3716 27.1126 30.2016C27.4729 29.0919 27.1427 28.0222 26.2519 27.4624C26.2119 27.4324 26.1719 27.4224 26.1218 27.3924C26.0518 27.8023 26.0217 28.2122 25.9216 28.6021C25.7015 29.4018 25.4112 29.5318 24.6206 29.2919C24.5505 29.2619 24.4804 29.2319 24.2703 29.1719Z" fill="#2A7891"/>
<path d="M14.392 30.9214C14.392 31.1913 14.402 31.4713 14.392 31.7412C14.382 32.1211 14.1418 32.381 13.8015 32.381C13.4612 32.391 13.201 32.1311 13.201 31.7512C13.191 31.1813 13.191 30.6015 13.201 30.0317C13.211 29.6418 13.4512 29.3918 13.7915 29.3918C14.1418 29.3818 14.392 29.6518 14.402 30.0517C14.402 30.3516 14.392 30.6315 14.392 30.9214Z" fill="#2A7891"/>
<path d="M5.38451 4.76867C5.40452 4.44876 5.68476 4.18883 6.00502 4.19883C6.32529 4.20882 6.58551 4.48875 6.58551 4.80866C6.5755 5.14856 6.28526 5.41849 5.95498 5.39849C5.62471 5.3785 5.3745 5.08858 5.38451 4.76867Z" fill="#2A7891"/>
<path d="M21.5981 4.19884C21.9183 4.19884 22.1886 4.46876 22.1986 4.78867C22.2086 5.10858 21.9383 5.38851 21.6181 5.3985C21.2778 5.4085 20.9976 5.12858 20.9976 4.78867C21.0076 4.46876 21.2778 4.19884 21.5981 4.19884Z" fill="#2A7891"/>
</g>
<defs>
<clipPath id="clip0_238_2048">
<rect width="36" height="36" fill="white"/>
</clipPath>
</defs>
</svg>
