<svg width="24" height="24" viewBox="0 0 24 24" fill="none" xmlns="http://www.w3.org/2000/svg">
<path d="M0 11.2473C0.0589536 10.7972 0.107188 10.3471 0.18758 9.90777C0.680647 7.17506 1.97763 4.88172 4.041 3.03312C5.7453 1.51137 7.73365 0.536169 9.99532 0.171807C13.5861 -0.401527 16.8071 0.461154 19.6423 2.74377C19.9103 2.9581 20.1568 3.19923 20.4087 3.43499C20.5695 3.58502 20.7249 3.73505 20.8589 3.86365C19.5029 5.22465 18.1684 6.56421 16.8125 7.92521C15.5316 6.51063 13.9184 5.71225 11.9515 5.71761C10.5956 5.72297 9.36827 6.13555 8.28031 6.93393C6.07758 8.55213 5.1772 11.3813 6.02935 13.964C6.89222 16.5735 9.30932 18.3042 12.0641 18.2827C14.8831 18.2613 16.8929 16.3966 17.5682 14.8534C15.5262 14.8534 13.4897 14.8534 11.4424 14.8534C11.4424 12.9459 11.4424 11.0598 11.4424 9.15761C15.5155 9.15761 19.5833 9.15761 23.7154 9.15761C23.8066 9.9292 23.9513 10.7062 23.9888 11.4885C24.246 17.4522 20.055 22.7087 14.1864 23.8017C13.7148 23.8875 13.2324 23.9357 12.7554 24C12.257 24 11.7532 24 11.2548 24C10.96 23.9625 10.6706 23.9303 10.3758 23.8928C8.1624 23.5767 6.17405 22.7301 4.44832 21.3102C2.15449 19.424 0.723522 17.0182 0.18758 14.0926C0.107188 13.6478 0.0643131 13.1977 0 12.753C0 12.2493 0 11.7457 0 11.2473ZM19.235 3.90652C15.4834 0.482587 9.49154 0.107508 5.19328 3.54751C0.986134 6.90714 -0.0911102 12.887 2.69043 17.5754C5.42909 22.1889 11.2387 24.1072 16.2015 22.0067C21.3412 19.8259 23.4903 14.5641 22.7079 10.2936C19.3368 10.2936 15.9657 10.2936 12.5893 10.2936C12.5893 11.4349 12.5893 12.5655 12.5893 13.7175C13.7148 13.7175 14.8242 13.7175 15.9282 13.7175C17.0322 13.7175 18.1416 13.7175 19.251 13.7175C18.3292 17.1307 15.612 19.1347 12.6322 19.3973C9.41115 19.6812 6.40451 17.8434 5.14505 14.8534C3.8963 11.885 4.73237 8.4664 7.18699 6.33381C9.48618 4.34054 13.6719 3.65468 16.8286 6.31773C17.6271 5.514 18.4257 4.71561 19.235 3.90652Z" fill="#2A7891"/>
</svg>
