<svg width="22" height="17" viewBox="0 0 22 17" fill="none" xmlns="http://www.w3.org/2000/svg">
<path d="M22 13.6863C21.8883 13.8685 21.7379 13.926 21.5402 13.9212C20.582 13.9117 19.6195 13.8973 18.6613 13.926C18.1457 13.9404 17.7848 13.7102 17.5184 13.2403C17.4926 13.1923 17.4582 13.154 17.4281 13.106C17.2176 13.4081 17.0285 13.7198 16.8051 13.998C15.1035 16.1703 12.9508 17.1726 10.377 16.9712C9.74103 16.9232 9.11798 16.6978 8.49493 16.5348C8.21564 16.4581 8.11251 16.2614 8.18556 16.0408C8.2586 15.8155 8.43048 15.7627 8.70548 15.8586C11.0902 16.7122 13.2945 16.3142 15.2969 14.631C16.0016 14.0363 16.5645 13.293 17.0113 12.4442C17.0457 12.3771 17.0844 12.2764 17.0672 12.2093C16.8524 11.3221 16.6332 10.4445 16.4098 9.55256C16.3539 9.8259 16.3109 10.1136 16.2379 10.387C16.0317 11.1638 15.8168 11.9407 15.5891 12.7128C15.5375 12.8902 15.4344 13.0533 15.3484 13.2163C15.0863 13.7007 14.7254 13.9404 14.1969 13.926C13.2516 13.8973 12.3063 13.9021 11.3609 13.926C10.8926 13.9356 10.566 13.7198 10.3168 13.3074C9.9129 12.6408 9.71954 11.8784 9.53907 11.1159C9.41876 10.6028 9.31564 10.0849 9.17384 9.56215C9.06642 10.0657 8.98478 10.5788 8.84728 11.0727C8.66251 11.7345 8.44337 12.3819 8.21134 13.0245C8.134 13.2403 7.97931 13.4273 7.83321 13.5999C7.65275 13.8205 7.41212 13.9212 7.14142 13.9164C6.77618 13.9117 6.41525 13.9164 6.02423 13.9644C6.23478 14.1706 6.43673 14.3912 6.65587 14.583C6.86212 14.7652 7.08556 14.9283 7.3004 15.1009C7.50235 15.2592 7.55392 15.4654 7.4422 15.6476C7.33478 15.8203 7.15431 15.8442 6.94806 15.7004C6.30782 15.2544 5.74493 14.7029 5.2379 14.0699C5.17345 13.9884 5.05314 13.926 4.95431 13.9212C4.67072 13.9021 4.38282 13.9021 4.09493 13.9164C3.68243 13.9404 3.37736 13.7438 3.14103 13.3889C2.80157 12.8806 2.59103 12.3004 2.45782 11.6961C2.16564 10.3726 1.90782 9.03944 1.63712 7.70629C1.58126 7.43295 1.5297 7.15961 1.47814 6.88626C1.43087 6.6369 1.5254 6.44988 1.71447 6.40192C1.89923 6.35397 2.05822 6.48824 2.10548 6.7376C2.3504 8.03239 2.57384 9.33676 2.84025 10.6267C2.96915 11.2454 3.1754 11.8448 3.35587 12.449C3.39884 12.5977 3.48478 12.732 3.55782 12.871C3.68243 13.1012 3.85861 13.2067 4.11212 13.2019C4.74806 13.1875 5.38829 13.1971 6.02423 13.1971C6.09298 13.1971 6.16173 13.1971 6.22189 13.1971C6.05001 12.7032 5.83517 12.2428 5.72775 11.7585C5.42697 10.4109 5.16915 9.05382 4.90275 7.6967C4.6922 6.62731 4.51603 5.55312 4.13361 4.53648C4.09923 4.44057 4.05197 4.34945 4.01329 4.25834C3.87579 3.94184 3.67384 3.78838 3.33439 3.80277C2.65548 3.83154 1.97657 3.81236 1.28478 3.81236C1.40939 4.15763 1.5297 4.48852 1.65001 4.81941C1.68009 4.90093 1.70587 4.98246 1.72306 5.06877C1.76603 5.27978 1.68439 5.45241 1.5254 5.51476C1.35782 5.58189 1.19454 5.49078 1.1172 5.27978C1.02267 5.01123 0.941028 4.73789 0.837903 4.47893C0.708996 4.16243 0.58009 3.83154 0.201965 3.77399C0.128918 3.7644 0.073059 3.63972 0.00860592 3.56779C0.00860592 3.48626 0.00860592 3.40954 0.00860592 3.32801C0.116028 3.14099 0.270715 3.08824 0.464075 3.09303C1.43087 3.10263 2.39767 3.11701 3.36447 3.08824C3.8629 3.07385 4.19806 3.30883 4.45157 3.75002C4.48595 3.80756 4.52032 3.86511 4.559 3.92745C4.78243 3.61095 4.98439 3.29445 5.20782 2.99712C7.34767 0.162993 10.9656 -0.786514 14.0035 0.695291C14.1067 0.743246 14.227 0.843952 14.257 0.949452C14.2871 1.05495 14.2484 1.24677 14.1797 1.30432C14.0895 1.37625 13.9219 1.40023 13.8102 1.36186C13.3934 1.23239 12.9895 1.03577 12.5641 0.920679C9.61642 0.129424 6.46251 1.65918 4.9715 4.58923C4.92853 4.67075 4.89845 4.79064 4.91993 4.87696C5.12189 5.80728 5.33243 6.73281 5.54298 7.66313C5.54728 7.68232 5.55587 7.70629 5.57736 7.77343C5.68907 7.22674 5.76642 6.71842 5.89532 6.22449C6.08868 5.49078 6.31212 4.76666 6.54845 4.05213C6.6215 3.82674 6.77618 3.63013 6.91798 3.44311C7.10275 3.19854 7.35196 3.09303 7.63986 3.09303C8.64962 3.09783 9.65939 3.10742 10.6692 3.08824C11.0945 3.08344 11.3953 3.28485 11.6274 3.65411C11.9496 4.17202 12.1387 4.76186 12.2848 5.3613C12.4567 6.08542 12.6027 6.81913 12.7574 7.54804C12.7703 7.596 12.7832 7.64875 12.8047 7.71588C12.9637 6.96779 13.0969 6.24367 13.2817 5.53394C13.4149 5.01602 13.6039 4.5125 13.8059 4.01856C13.9004 3.78358 14.0637 3.57738 14.2227 3.38556C14.3902 3.17456 14.618 3.08344 14.8801 3.08824C15.2367 3.09303 15.5934 3.08824 16.0231 3.08824C15.8512 2.91081 15.7266 2.76694 15.5891 2.63746C15.4215 2.47921 15.241 2.33055 15.0692 2.1723C14.8973 2.01885 14.8629 1.81744 14.9789 1.64959C15.0906 1.48175 15.284 1.44339 15.4516 1.60643C15.8984 2.04282 16.3281 2.49839 16.7707 2.93958C16.8481 3.01631 16.9598 3.07865 17.0586 3.08344C17.3508 3.10263 17.6473 3.10263 17.9395 3.08824C18.309 3.07385 18.5883 3.24649 18.8074 3.56299C19.134 4.03295 19.3359 4.57484 19.4606 5.14071C19.7527 6.44988 20.0106 7.76384 20.277 9.0826C20.3629 9.5094 20.4488 9.94099 20.5262 10.3678C20.5863 10.6939 20.393 10.948 20.1524 10.8473C20.0449 10.7994 19.9289 10.6411 19.9031 10.5069C19.7141 9.57174 19.5508 8.63182 19.3746 7.6967C19.1813 6.65608 18.9965 5.61546 18.6399 4.62279C18.6141 4.55086 18.584 4.47893 18.5539 4.4022C18.3949 3.98979 18.1629 3.7692 17.716 3.79797C17.0629 3.84593 16.4055 3.81236 15.7309 3.81236C15.8512 4.10968 15.9715 4.37823 16.066 4.66116C16.4227 5.69219 16.5902 6.78076 16.8008 7.85495C17.0586 9.17851 17.325 10.5021 17.6215 11.816C17.7031 12.1901 17.8879 12.5353 18.0426 12.8854C18.1457 13.1156 18.3305 13.2115 18.5754 13.2067C19.2758 13.1923 19.9805 13.2019 20.7109 13.2019C20.6422 13.0437 20.5777 12.9046 20.5219 12.7655C20.4574 12.5977 20.3887 12.4298 20.3371 12.2572C20.2598 12.0126 20.3328 11.8208 20.5176 11.7441C20.6895 11.677 20.8442 11.7777 20.9344 12.003C21.0547 12.2908 21.1707 12.5833 21.3039 12.8662C21.3941 13.0533 21.5274 13.1827 21.7379 13.2211C21.8324 13.2403 21.9098 13.3698 21.9957 13.4465C22 13.528 22 13.6047 22 13.6863ZM8.50782 3.81236C8.50782 3.85552 8.50353 3.8747 8.50782 3.88429C8.92892 4.74268 9.14376 5.6778 9.32853 6.61772C9.63361 8.16666 9.9129 9.72519 10.2395 11.2693C10.3512 11.792 10.5531 12.2908 10.7422 12.7895C10.8496 13.0724 11.0516 13.2211 11.3567 13.2067C11.7906 13.1827 12.2289 13.2019 12.6672 13.2019C12.9336 13.2019 13.2043 13.2019 13.4965 13.2019C13.402 12.9861 13.316 12.8039 13.243 12.6169C12.8863 11.6961 12.6973 10.7227 12.5082 9.74917C12.2246 8.29134 11.9496 6.83351 11.6402 5.38528C11.5457 4.94409 11.3438 4.52689 11.1762 4.10488C11.1074 3.93224 10.9699 3.81715 10.7852 3.82195C10.0246 3.81715 9.27267 3.81236 8.50782 3.81236ZM13.1442 9.59571C13.1484 9.63887 13.1484 9.68683 13.157 9.73478C13.316 10.4445 13.4621 11.159 13.6469 11.864C13.7328 12.1997 13.8617 12.5258 14.0164 12.8279C14.2785 13.3362 14.6051 13.3314 14.8672 12.8183C15.009 12.5449 15.1379 12.2476 15.2067 11.9455C15.4817 10.7322 15.7309 9.51419 15.9844 8.29614C16.0359 8.05157 16.1133 7.78302 16.0703 7.54804C15.9371 6.78076 15.7824 6.01828 15.5891 5.27019C15.4859 4.86736 15.327 4.47414 15.1379 4.11447C14.9317 3.71645 14.6652 3.73083 14.4461 4.11447C14.3215 4.33507 14.2055 4.57484 14.1453 4.82421C13.9133 5.77851 13.6984 6.7376 13.4965 7.6967C13.3633 8.32012 13.2602 8.95312 13.1442 9.59571ZM8.86017 7.66793C8.85157 7.60559 8.85157 7.55763 8.83868 7.51447C8.70118 6.8479 8.58517 6.17174 8.409 5.51476C8.28009 5.02082 8.10392 4.53648 7.88907 4.0809C7.70861 3.70686 7.42071 3.72124 7.22306 4.0905C7.06407 4.38782 6.91368 4.70911 6.84064 5.0448C6.53556 6.44028 6.25626 7.84057 5.97267 9.24085C5.934 9.42308 5.90392 9.62449 5.93829 9.80192C6.05001 10.4014 6.17032 11.0056 6.32931 11.5906C6.44962 12.0318 6.60431 12.4682 6.80197 12.8662C7.034 13.3314 7.35196 13.317 7.60548 12.8614C7.72579 12.6456 7.83751 12.4155 7.89767 12.1709C8.14259 11.1542 8.37032 10.1328 8.59376 9.11137C8.69689 8.62703 8.77423 8.14268 8.86017 7.66793Z" fill="white"/>
</svg>
