<svg width="44" height="34" viewBox="0 0 44 34" fill="none" xmlns="http://www.w3.org/2000/svg">
<path d="M44 27.3725C43.7766 27.737 43.4758 27.8521 43.0805 27.8425C41.1641 27.8233 39.2391 27.7945 37.3227 27.8521C36.2914 27.8809 35.5696 27.4205 35.0367 26.4806C34.9852 26.3847 34.9164 26.3079 34.8563 26.212C34.4352 26.8163 34.0571 27.4397 33.6102 27.996C30.2071 32.3407 25.9016 34.3452 20.7539 33.9424C19.4821 33.8464 18.236 33.3957 16.9899 33.0696C16.4313 32.9161 16.225 32.5229 16.3711 32.0817C16.5172 31.6309 16.861 31.5254 17.411 31.7173C22.1805 33.4244 26.5891 32.6284 30.5938 29.262C32.0031 28.0727 33.1289 26.5861 34.0227 24.8885C34.0914 24.7542 34.1688 24.5528 34.1344 24.4185C33.7047 22.6442 33.2664 20.889 32.8195 19.1051C32.7078 19.6518 32.6219 20.2273 32.4758 20.774C32.0633 22.3277 31.6336 23.8814 31.1781 25.4256C31.075 25.7804 30.8688 26.1065 30.6969 26.4326C30.1727 27.4013 29.4508 27.8809 28.3938 27.8521C26.5031 27.7945 24.6125 27.8041 22.7219 27.8521C21.7852 27.8713 21.1321 27.4397 20.6336 26.6149C19.8258 25.2817 19.4391 23.7567 19.0781 22.2318C18.8375 21.2055 18.6313 20.1697 18.3477 19.1243C18.1328 20.1314 17.9696 21.1576 17.6946 22.1455C17.325 23.469 16.8867 24.7638 16.4227 26.049C16.268 26.4806 15.9586 26.8546 15.6664 27.1999C15.3055 27.6411 14.8242 27.8425 14.2828 27.8329C13.5524 27.8233 12.8305 27.8329 12.0485 27.9288C12.4696 28.3412 12.8735 28.7824 13.3117 29.1661C13.7242 29.5305 14.1711 29.8566 14.6008 30.2019C15.0047 30.5184 15.1078 30.9308 14.8844 31.2952C14.6696 31.6405 14.3086 31.6885 13.8961 31.4008C12.6156 30.5088 11.4899 29.4058 10.4758 28.1398C10.3469 27.9768 10.1063 27.8521 9.90862 27.8425C9.34143 27.8041 8.76565 27.8041 8.18987 27.8329C7.36487 27.8809 6.75471 27.4876 6.28206 26.7779C5.60315 25.7613 5.18205 24.6008 4.91565 23.3923C4.33127 20.7452 3.81565 18.0789 3.27424 15.4126C3.16252 14.8659 3.0594 14.3192 2.95627 13.7725C2.86174 13.2738 3.05081 12.8998 3.42893 12.8039C3.79846 12.7079 4.11643 12.9765 4.21096 13.4752C4.70081 16.0648 5.14768 18.6735 5.68049 21.2535C5.93831 22.4907 6.35081 23.6896 6.71174 24.8981C6.79768 25.1954 6.96956 25.4639 7.11565 25.7421C7.36487 26.2024 7.71721 26.4134 8.22424 26.4039C9.49612 26.3751 10.7766 26.3943 12.0485 26.3943C12.186 26.3943 12.3235 26.3943 12.4438 26.3943C12.1 25.4064 11.6703 24.4857 11.4555 23.517C10.8539 20.8219 10.3383 18.1077 9.80549 15.3934C9.3844 13.2546 9.03205 11.1063 8.26721 9.07297C8.19846 8.88115 8.10393 8.69892 8.02659 8.51669C7.75159 7.88369 7.34768 7.57678 6.66877 7.60555C5.31096 7.66309 3.95315 7.62473 2.56956 7.62473C2.81877 8.31528 3.0594 8.97706 3.30002 9.63883C3.36018 9.80188 3.41174 9.96493 3.44612 10.1376C3.53206 10.5596 3.36877 10.9048 3.05081 11.0295C2.71565 11.1638 2.38909 10.9816 2.2344 10.5596C2.04534 10.0225 1.88206 9.47579 1.67581 8.95788C1.41799 8.32487 1.16018 7.66309 0.403931 7.548C0.257837 7.52882 0.146118 7.27946 0.0172119 7.13559C0.0172119 6.97254 0.0172119 6.81909 0.0172119 6.65604C0.232056 6.28199 0.541431 6.17649 0.928149 6.18608C2.86174 6.20527 4.79534 6.23404 6.72893 6.17649C7.72581 6.14772 8.39612 6.61768 8.90315 7.50005C8.9719 7.61514 9.04065 7.73023 9.11799 7.85491C9.56487 7.22191 9.96877 6.58891 10.4156 5.99427C14.6953 0.326 21.9313 -1.57301 28.0071 1.3906C28.2133 1.48651 28.4539 1.68792 28.5141 1.89892C28.5742 2.10992 28.4969 2.49356 28.3594 2.60865C28.1789 2.75252 27.8438 2.80047 27.6203 2.72374C26.7867 2.46479 25.9789 2.07156 25.1281 1.84137C19.2328 0.258863 12.925 3.31838 9.94299 9.17847C9.85705 9.34151 9.7969 9.58129 9.83987 9.75393C10.2438 11.6146 10.6649 13.4656 11.086 15.3263C11.0946 15.3646 11.1117 15.4126 11.1547 15.5469C11.3781 14.4535 11.5328 13.4369 11.7906 12.449C12.1774 10.9816 12.6242 9.53333 13.0969 8.10428C13.243 7.6535 13.5524 7.26027 13.836 6.88623C14.2055 6.39709 14.7039 6.18608 15.2797 6.18608C17.2992 6.19568 19.3188 6.21486 21.3383 6.17649C22.1891 6.1669 22.7906 6.56972 23.2547 7.30823C23.8992 8.34405 24.2774 9.52374 24.5696 10.7226C24.9133 12.1709 25.2055 13.6383 25.5149 15.0961C25.5406 15.192 25.5664 15.2975 25.6094 15.4318C25.9274 13.9356 26.1938 12.4874 26.5633 11.0679C26.8297 10.0321 27.2078 9.02501 27.6117 8.03714C27.8008 7.56718 28.1274 7.15477 28.4453 6.77113C28.7805 6.34913 29.236 6.1669 29.7602 6.17649C30.4735 6.18608 31.1867 6.17649 32.0461 6.17649C31.7024 5.82163 31.4531 5.5339 31.1781 5.27494C30.843 4.95844 30.4821 4.66112 30.1383 4.34462C29.7946 4.03771 29.7258 3.63489 29.9578 3.2992C30.1813 2.96352 30.568 2.88679 30.9031 3.21288C31.7969 4.08566 32.6563 4.9968 33.5414 5.87917C33.6961 6.03263 33.9196 6.15731 34.1172 6.1669C34.7016 6.20527 35.2946 6.20527 35.8789 6.17649C36.618 6.14772 37.1766 6.493 37.6149 7.126C38.268 8.06592 38.6719 9.14969 38.9211 10.2814C39.5055 12.8998 40.0211 15.5277 40.5539 18.1652C40.7258 19.0188 40.8977 19.882 41.0524 20.7356C41.1727 21.3878 40.786 21.8961 40.3047 21.6947C40.0899 21.5988 39.8578 21.2823 39.8063 21.0137C39.4281 19.1435 39.1016 17.2637 38.7492 15.3934C38.3625 13.3122 37.993 11.2309 37.2797 9.2456C37.2281 9.10174 37.168 8.95788 37.1078 8.80442C36.7899 7.9796 36.3258 7.53841 35.432 7.59596C34.1258 7.69187 32.811 7.62473 31.4617 7.62473C31.7024 8.21937 31.943 8.75646 32.132 9.32233C32.8453 11.3844 33.1805 13.5615 33.6016 15.7099C34.1172 18.357 34.65 21.0041 35.243 23.6321C35.4063 24.3802 35.7758 25.0707 36.0852 25.7709C36.2914 26.2312 36.661 26.423 37.1508 26.4134C38.5516 26.3847 39.961 26.4039 41.4219 26.4039C41.2844 26.0874 41.1555 25.8092 41.0438 25.5311C40.9149 25.1954 40.7774 24.8597 40.6742 24.5144C40.5196 24.0253 40.6656 23.6417 41.0352 23.4882C41.3789 23.3539 41.6883 23.5553 41.8688 24.0061C42.1094 24.5816 42.3414 25.1666 42.6078 25.7325C42.7883 26.1065 43.0547 26.3655 43.4758 26.4422C43.6649 26.4806 43.8195 26.7395 43.9914 26.893C44 27.056 44 27.2095 44 27.3725ZM17.0156 7.62473C17.0156 7.71105 17.0071 7.74941 17.0156 7.76859C17.8578 9.48538 18.2875 11.3556 18.6571 13.2354C19.2672 16.3333 19.8258 19.4504 20.4789 22.5387C20.7024 23.5841 21.1063 24.5816 21.4844 25.579C21.6992 26.1449 22.1031 26.4422 22.7133 26.4134C23.5813 26.3655 24.4578 26.4039 25.3344 26.4039C25.8672 26.4039 26.4086 26.4039 26.993 26.4039C26.8039 25.9723 26.6321 25.6078 26.486 25.2338C25.7727 23.3923 25.3946 21.4453 25.0164 19.4984C24.4492 16.5827 23.8992 13.667 23.2805 10.7706C23.0914 9.8882 22.6875 9.05379 22.3524 8.20978C22.2149 7.8645 21.9399 7.63432 21.5703 7.64391C20.0492 7.63432 18.5453 7.62473 17.0156 7.62473ZM26.2883 19.1914C26.2969 19.2778 26.2969 19.3737 26.3141 19.4696C26.6321 20.889 26.9242 22.3181 27.2938 23.728C27.4656 24.3993 27.7235 25.0515 28.0328 25.6558C28.5571 26.6724 29.2102 26.6628 29.7344 25.6366C30.018 25.0899 30.2758 24.4953 30.4133 23.891C30.9633 21.4645 31.4617 19.0284 31.9688 16.5923C32.0719 16.1032 32.2266 15.5661 32.1406 15.0961C31.8742 13.5615 31.5649 12.0366 31.1781 10.5404C30.9719 9.73474 30.6539 8.94829 30.2758 8.22896C29.8633 7.43291 29.3305 7.46168 28.8922 8.22896C28.643 8.67015 28.411 9.14969 28.2906 9.64843C27.8266 11.557 27.3969 13.4752 26.993 15.3934C26.7266 16.6402 26.5203 17.9063 26.2883 19.1914ZM17.7203 15.3359C17.7031 15.2112 17.7031 15.1153 17.6774 15.029C17.4024 13.6958 17.1703 12.3435 16.818 11.0295C16.5602 10.0417 16.2078 9.07297 15.7781 8.16182C15.4172 7.41373 14.8414 7.4425 14.4461 8.18101C14.1281 8.77565 13.8274 9.41824 13.6813 10.0896C13.0711 12.8806 12.5125 15.6811 11.9453 18.4817C11.868 18.8462 11.8078 19.249 11.8766 19.6039C12.1 20.8027 12.3406 22.0112 12.6586 23.1813C12.8992 24.0637 13.2086 24.9364 13.6039 25.7325C14.068 26.6628 14.7039 26.634 15.211 25.7229C15.4516 25.2913 15.675 24.8309 15.7953 24.3418C16.2852 22.3085 16.7406 20.2656 17.1875 18.2228C17.3938 17.2541 17.5485 16.2854 17.7203 15.3359Z" fill="#2A7891"/>
</svg>
