<svg width="25" height="25" viewBox="0 0 25 25" fill="none" xmlns="http://www.w3.org/2000/svg">
<path d="M12.5 0C5.60707 0 0 5.60707 0 12.5C0 19.3929 5.60707 25 12.5 25C19.3929 25 25 19.3929 25 12.5C25 10.0217 24.2719 7.71159 23.0235 5.76703L22.2794 6.64593C23.3093 8.36006 23.913 10.3587 23.913 12.5C23.913 18.7929 18.7929 23.913 12.5 23.913C6.20706 23.913 1.08696 18.7929 1.08696 12.5C1.08696 6.20706 6.20706 1.08696 12.5 1.08696C15.4582 1.08696 18.1489 2.22813 20.1788 4.08139L20.8899 3.24176C18.6698 1.22818 15.7255 0 12.5 0ZM22.411 3.12712L11.9098 15.5189L7.48981 11.3961L6.7489 12.1911L12.0022 17.0909L23.2411 3.82982L22.411 3.12712Z" fill="#2A7891"/>
</svg>
