<svg width="30" height="38" viewBox="0 0 30 38" fill="none" xmlns="http://www.w3.org/2000/svg">
<path d="M11.4062 0C12.126 0.217652 12.8557 0.42541 13.5755 0.672741C14.945 1.14762 16.2146 1.80057 17.3242 2.72065C19.4735 4.48164 20.4632 6.81645 20.7031 9.50742C20.8831 11.496 20.6132 13.4548 20.3632 15.4137C20.1733 16.868 19.9034 18.3223 20.0933 19.8063C20.1233 20.0239 20.1633 20.2515 20.2133 20.4593C20.7431 22.4676 22.9724 23.1205 24.5119 21.686C24.8817 21.3496 25.1816 20.9143 25.4215 20.479C25.9714 19.4501 26.2713 18.3421 26.2613 17.1747C26.2613 16.8779 26.3612 16.6306 26.6411 16.5118C26.931 16.3832 27.181 16.4624 27.4209 16.6899C28.8204 18.0255 29.5702 19.6678 29.8501 21.5475C30.4799 25.8016 29.0303 29.3929 26.2013 32.4895C23.5722 35.3684 20.3033 37.169 16.4146 37.8219C9.85674 38.9102 3.19896 35.0617 0.909723 28.8586C-0.259887 25.7027 -0.319868 22.517 0.819752 19.3512C1.30959 17.976 1.91939 16.6503 2.4692 15.3049C2.60916 14.9784 2.83908 14.7706 3.21895 14.83C3.60882 14.8992 3.69879 15.1763 3.76877 15.5225C3.87873 16.0469 3.9887 16.591 4.20862 17.0857C4.50852 17.7782 5.03835 18.0255 5.7681 17.798C6.29793 17.6397 6.81775 17.3923 7.2776 17.0857C8.84708 16.0073 10.2066 14.6618 11.0363 12.9701C12.7658 9.42827 13.2156 5.83702 10.8964 2.31502C10.6065 1.87972 10.3066 1.4642 9.99669 1.04869C9.72678 0.682635 9.84674 0.306691 10.3566 0C10.7065 0 11.0563 0 11.4062 0ZM11.8761 1.45431C11.966 1.6126 11.996 1.68185 12.036 1.74121C14.5152 5.58969 14.0753 9.49752 12.2459 13.3955C11.5562 14.8696 10.4565 16.0666 9.25694 17.1648C8.36724 17.976 7.40756 18.6785 6.21795 19.0049C4.83841 19.3809 3.75877 18.9258 3.069 17.6792C3.02902 17.6001 2.96904 17.5308 2.90906 17.4319C-0.739727 25.0596 2.44921 31.0154 6.11799 33.8547C6.12798 33.8448 6.13798 33.825 6.12798 33.825C6.09799 33.7459 6.05801 33.6667 6.02802 33.5876C5.65814 32.7863 5.41822 31.9453 5.32825 31.0648C5.10832 29.0862 5.80809 27.3252 6.62782 25.584C6.76777 25.2971 7.00769 25.1585 7.33758 25.2179C7.64748 25.2674 7.79743 25.485 7.8674 25.7719C7.91739 25.9995 7.96737 26.227 8.02735 26.4546C8.12732 26.781 8.36724 26.88 8.66714 26.7514C8.93705 26.6326 9.20696 26.4842 9.44688 26.3161C10.8064 25.3168 11.5462 23.9615 11.7861 22.3192C11.8461 21.8938 11.8561 21.4585 11.8061 21.0331C11.6961 20.0932 11.2063 19.2918 10.6965 18.5103C10.5765 18.3223 10.5365 18.0156 10.5865 17.798C10.6565 17.5012 10.9464 17.3726 11.2363 17.4319C11.8561 17.5605 12.4859 17.6595 13.0757 17.887C15.2449 18.7081 16.5145 20.2515 16.7644 22.5863C16.8944 23.823 16.6845 25.0299 16.5645 26.2369C16.4945 26.9492 16.4545 27.6714 16.5345 28.3739C16.6345 29.1752 17.4942 29.472 18.164 28.9971C18.3439 28.8685 18.4939 28.6904 18.6038 28.5025C18.9337 27.9484 19.0937 27.3549 19.1137 26.7019C19.1236 26.4941 19.2936 26.2171 19.4635 26.1281C19.6235 26.039 19.9034 26.1281 20.1133 26.1973C20.2333 26.2369 20.3133 26.3754 20.4132 26.4744C21.3029 27.4241 21.6328 28.5915 21.6628 29.8381C21.7128 32.1531 20.6931 34.0031 19.0337 35.5663C18.9237 35.6652 18.8138 35.7641 18.7038 35.8631C18.8737 35.8828 19.0037 35.8433 19.1236 35.7938C20.6631 35.22 22.0927 34.4285 23.3722 33.3996C26.3212 31.0252 28.3506 28.1067 28.6805 24.2484C28.8304 22.4478 28.6105 20.6967 27.7008 19.0742C27.6308 18.9456 27.5308 18.817 27.4209 18.6389C27.3409 18.9456 27.2909 19.1731 27.2309 19.3908C26.8311 20.7659 26.2313 22.0323 25.0217 22.9128C22.6925 24.6045 19.6635 23.5064 18.9837 20.7462C18.7538 19.8162 18.6938 18.8664 18.7938 17.9068C19.0037 15.9084 19.2736 13.9099 19.4535 11.9016C19.6135 10.1901 19.4835 8.48841 18.8437 6.86592C17.6142 3.76933 15.005 2.37438 11.8761 1.45431ZM20.1333 28.4332C19.8434 28.8685 19.6235 29.3038 19.3036 29.66C18.6338 30.4119 17.7641 30.6394 16.7844 30.3723C15.8447 30.1151 15.3749 29.4127 15.2349 28.5124C15.145 27.9484 15.155 27.3549 15.195 26.781C15.2749 25.5345 15.4949 24.2978 15.5049 23.0612C15.5149 21.1518 14.5352 19.8459 12.7558 19.1237C12.6858 19.094 12.6058 19.094 12.4859 19.0643C13.1556 20.4296 13.2656 21.7652 12.9157 23.1898C12.4559 25.0893 11.4262 26.5634 9.78676 27.622C9.29693 27.9386 8.75711 28.1661 8.15731 28.0375C7.80742 27.9682 7.48753 27.7704 7.14764 27.6319C6.62782 28.8784 6.42788 30.1546 6.63781 31.2528C7.37757 35.0221 10.0567 36.8623 13.6955 36.6248C16.6445 36.4369 18.7938 34.7451 19.9934 32.0344C20.5132 30.8867 20.5132 29.6699 20.1333 28.4332Z" fill="#2A7891"/>
</svg>
