<svg width="36" height="36" viewBox="0 0 36 36" fill="none" xmlns="http://www.w3.org/2000/svg">
<path d="M1.57961 25.7828C0.559893 24.1133 0.599882 23.1736 1.75956 21.514C-0.239885 20.2244 -0.269876 17.4851 1.74956 16.1755C0.31996 15.0158 -0.109921 13.6962 0.519904 12.2966C1.14973 10.887 2.37939 10.3371 4.29885 10.6271C3.92896 7.76785 6.89813 6.09831 9.10752 7.55791C11.027 6.10831 14.0162 7.30798 14.0561 10.1272C15.9856 9.45738 17.3852 9.82728 18.225 11.2069C18.9048 12.3266 18.9148 14.0361 17.3852 15.2858C18.4049 15.7956 19.0648 16.5854 19.2047 17.7251C19.3447 18.8548 18.9248 19.7745 18.115 20.4743C18.4349 20.9242 18.8148 21.3241 19.0248 21.794C19.2347 22.2538 19.2647 22.7937 19.3947 23.3635C19.3947 23.3635 19.5046 23.3735 19.6146 23.3735C20.2644 23.3735 20.9142 23.3635 21.5641 23.3735C21.944 23.3835 22.2039 23.6234 22.2039 23.9633C22.2039 24.3033 21.954 24.5532 21.5741 24.5632C20.7743 24.5732 19.9745 24.5732 19.1747 24.5632C18.9648 24.5632 18.8448 24.6232 18.7149 24.7931C18.105 25.6229 17.2653 26.0328 16.2455 26.0528C15.6857 26.0628 15.1159 26.0828 14.556 26.0428C14.1261 26.0128 13.8162 26.1927 13.5463 26.4926C13.4663 26.5826 13.3863 26.6826 13.2964 26.7726C13.0564 27.0025 12.7865 27.0325 12.5166 26.8425C12.2566 26.6626 12.1867 26.3327 12.3666 26.0428C12.8165 25.323 13.4663 24.8831 14.3361 24.8531C14.9759 24.8331 15.6057 24.8531 16.2455 24.8431C17.2852 24.8231 18.075 24.0733 18.115 23.0736C18.155 22.0639 17.4552 21.2741 16.4155 21.1541C16.3055 21.1441 16.1556 21.1541 16.0856 21.0941C15.9256 20.9442 15.7457 20.7642 15.6957 20.5643C15.6257 20.2944 15.7957 20.0844 16.0556 19.9845C16.2255 19.9245 16.4255 19.9145 16.6054 19.8645C17.5552 19.6445 18.195 18.7548 18.065 17.845C17.9251 16.8453 17.1153 16.1755 16.1056 16.2255C15.9956 16.2255 15.8856 16.2455 15.7657 16.2655C15.4758 16.2955 15.2458 16.1855 15.1258 15.9156C15.0059 15.6257 15.0859 15.3657 15.3358 15.1858C15.7957 14.8559 16.2755 14.566 16.7154 14.2261C17.3152 13.7762 17.5652 13.1564 17.4252 12.4166C17.2753 11.6468 16.7954 11.1569 16.0356 10.957C15.5257 10.827 15.0459 10.927 14.606 11.2069C14.3261 11.3868 14.0561 11.5968 13.7662 11.7767C13.3064 12.0567 12.8365 11.8067 12.8165 11.2669C12.8065 10.867 12.8165 10.4671 12.8065 10.0672C12.7865 8.95752 12.0167 8.14774 10.977 8.13774C9.9073 8.12775 9.12751 8.92753 9.09752 10.0472C9.08752 10.4371 9.12751 10.827 9.07753 11.2069C9.04754 11.4168 8.91757 11.6568 8.75762 11.7867C8.54767 11.9667 8.29774 11.8567 8.06781 11.7068C7.68791 11.4568 7.30802 11.1469 6.88814 11.0069C6.05837 10.737 5.16861 11.1869 4.78872 11.9667C4.40882 12.7365 4.59877 13.6462 5.26859 14.2061C5.64848 14.516 6.03837 14.8059 6.42826 15.0958C6.69819 15.2958 6.89813 15.5257 6.75817 15.8856C6.61821 16.2355 6.33829 16.2855 5.98839 16.2555C4.91868 16.1455 4.02893 16.8153 3.88897 17.7851C3.73901 18.8548 4.40882 19.7145 5.51852 19.9145C5.62849 19.9345 5.73845 19.9545 5.84842 19.9845C6.11835 20.0744 6.24831 20.2844 6.24831 20.5543C6.23832 20.8442 6.08836 21.0542 5.78844 21.1141C5.5785 21.1541 5.36856 21.1541 5.15862 21.2141C4.26886 21.454 3.70902 22.3138 3.81899 23.2435C3.92896 24.1233 4.69874 24.8131 5.62849 24.8331C6.27831 24.8531 6.92812 24.8331 7.57794 24.8331C8.0878 24.8331 8.58766 24.9731 8.89758 25.353C9.25748 25.7928 9.67736 25.7528 10.1872 25.7229C10.1872 25.5029 10.2172 25.283 10.1772 25.073C10.1572 24.9731 10.0273 24.8631 9.91729 24.8131C8.72762 24.2633 7.52796 23.7334 6.34829 23.1736C6.13834 23.0736 5.9184 22.8437 5.85842 22.6237C5.73845 22.1439 6.25831 21.8339 6.76817 22.0639C7.78789 22.5138 8.78761 22.9736 9.80732 23.4335C9.91729 23.4835 10.0273 23.5235 10.1872 23.5935C10.1872 22.4538 10.1972 21.3541 10.1772 20.2544C10.1772 20.1644 10.0273 20.0444 9.91729 19.9944C8.73762 19.4246 7.54795 18.8748 6.36828 18.2949C6.19833 18.2149 5.97839 18.075 5.9384 17.915C5.88841 17.7151 5.9284 17.4452 6.04837 17.2752C6.20832 17.0353 6.49824 17.0353 6.75817 17.1652C7.23804 17.3852 7.70791 17.6151 8.17778 17.8351C8.8276 18.145 9.47742 18.4549 10.1872 18.7848C10.1872 17.8051 10.1572 16.8753 10.1972 15.9456C10.2172 15.4657 10.0673 15.2258 9.62737 15.0158C8.49769 14.496 7.388 13.9161 6.26831 13.3563C5.87842 13.1663 5.74845 12.8564 5.88841 12.5365C6.03837 12.1866 6.38827 12.0767 6.79816 12.2766C7.79788 12.7665 8.78761 13.2663 9.77733 13.7662C9.8873 13.8162 9.99727 13.8762 10.1772 13.9561C10.1772 13.6162 10.1772 13.3063 10.1772 13.0064C10.1772 12.4565 10.1672 11.9067 10.1772 11.3568C10.1872 10.997 10.4272 10.757 10.7571 10.747C11.097 10.737 11.3669 10.987 11.3669 11.3668C11.3769 12.0866 11.3669 12.8164 11.3669 13.5362C11.3669 13.6662 11.3669 13.8062 11.3669 13.9761C11.5268 13.9061 11.6568 13.8562 11.7768 13.8062C12.8665 13.3063 13.9462 12.7965 15.0359 12.2866C15.4558 12.0866 15.7957 12.1866 15.9556 12.5365C16.1056 12.8664 15.9656 13.1763 15.5457 13.3663C14.2461 13.9761 12.9465 14.586 11.6468 15.1758C11.4369 15.2758 11.3569 15.3957 11.3669 15.6257C11.3769 16.6654 11.3769 17.6951 11.3769 18.7948C11.5268 18.7348 11.6368 18.6948 11.7468 18.6448C12.8165 18.165 13.8862 17.6851 14.9659 17.2152C15.1258 17.1452 15.2958 17.0853 15.4658 17.0853C15.7457 17.0853 15.9356 17.2652 15.9956 17.5251C16.0656 17.8151 15.9556 18.055 15.6957 18.185C15.3558 18.3649 14.9959 18.5149 14.646 18.6648C13.6463 19.1147 12.6365 19.5546 11.6368 20.0044C11.5368 20.0544 11.3869 20.1744 11.3869 20.2644C11.3669 21.3641 11.3769 22.4538 11.3769 23.6034C11.7668 23.4435 12.1067 23.3035 12.4466 23.1536C13.3064 22.7837 14.1661 22.4138 15.0259 22.0539C15.4857 21.8539 15.8257 21.9639 15.9656 22.3338C16.0956 22.6837 15.9356 22.9636 15.4857 23.1636C14.1161 23.7434 12.7565 24.3232 11.3669 24.9131C11.3669 25.293 11.3669 25.6729 11.3669 26.0428C11.3669 26.7326 11.1969 26.9125 10.5171 26.9125C8.35773 26.9125 6.19833 26.9125 4.02893 26.9125C3.88897 26.9125 3.759 26.9125 3.62904 26.9125C3.17917 29.1219 4.73873 31.5212 6.98811 32.0711C7.58794 32.2211 8.21777 32.251 8.83759 32.301C9.29747 32.341 9.57739 32.551 9.56739 32.9309C9.55739 33.2908 9.27747 33.5107 8.83759 33.5107C7.80788 33.5007 6.79816 33.3607 5.83843 32.9608C3.90896 32.1611 2.88925 30.6515 2.52935 28.652C2.42937 28.1022 2.39938 27.5424 2.3294 26.9425C1.9795 26.9425 1.5996 26.9425 1.21971 26.9425C0.729846 30.6715 2.3294 33.7606 6.03837 34.6004C6.43826 34.6904 6.85814 34.7104 7.26803 34.7104C14.406 34.7204 21.5341 34.7204 28.6721 34.7104C32.1111 34.7104 34.7504 32.0711 34.7604 28.632C34.7604 28.0722 34.7604 27.5124 34.7604 26.9125C34.5804 26.9125 34.4405 26.9125 34.2905 26.9125C29.7718 26.9125 25.243 26.9125 20.7243 26.9125C20.6043 26.9125 20.4744 26.9225 20.3544 26.9125C20.0045 26.8825 19.7646 26.6226 19.7746 26.2927C19.7846 25.9828 20.0145 25.7329 20.3544 25.7229C20.8143 25.7029 21.2741 25.7129 21.744 25.7129C23.0636 25.7129 24.3933 25.7129 25.7429 25.7129C25.7429 24.1233 25.7429 22.5437 25.7429 20.9142C25.273 21.2441 24.8232 21.554 24.3833 21.8739C23.8034 22.2838 23.1636 22.1339 22.5438 22.0339C22.3938 22.0139 22.2039 21.684 22.2039 21.494C22.1939 21.3241 22.4138 21.1341 22.5438 20.9742C22.5838 20.9242 22.6838 20.9042 22.7537 20.9242C23.5435 21.0841 24.1034 20.6343 24.6732 20.2044C25.0331 19.9345 25.533 19.7445 25.7129 19.3846C25.8929 19.0247 25.7629 18.5049 25.7729 18.055C25.7729 17.865 25.7829 17.6751 25.7729 17.4951C25.7129 16.4654 25.9029 15.5057 26.6426 14.6959C26.2328 14.436 25.8529 14.1961 25.433 13.9361C24.7932 14.6559 24.1833 15.4257 23.4935 16.0955C22.9137 16.6554 22.6638 17.2552 22.7637 18.055C22.8137 18.4349 22.7837 18.8248 22.7737 19.2147C22.7537 20.0644 22.0839 20.7043 21.2441 20.6843C20.4344 20.6743 19.7846 20.0344 19.7746 19.1947C19.7646 17.7951 19.7646 16.3955 19.7846 14.9958C19.7846 14.7959 19.9045 14.556 20.0445 14.416C20.3844 14.0661 20.7543 13.7562 21.1242 13.4363C21.4141 13.1863 21.764 13.1963 21.9939 13.4363C22.2439 13.6962 22.2139 14.0361 21.914 14.326C21.894 14.346 21.884 14.366 21.854 14.376C21.0642 14.8459 20.8643 15.5357 20.9442 16.4254C21.0242 17.2652 20.9642 18.125 20.9642 18.9747C20.9642 19.1947 20.9242 19.4746 21.2541 19.4746C21.614 19.4846 21.5641 19.1847 21.5641 18.9547C21.5641 18.2949 21.5841 17.6251 21.5541 16.9653C21.5441 16.6154 21.664 16.3455 21.894 16.0955C22.7537 15.1458 23.6035 14.1761 24.4633 13.2163C24.6132 13.0464 24.7032 12.9064 24.5132 12.7565C24.0234 12.9464 23.5635 13.1464 23.0936 13.2863C22.6038 13.4363 22.2539 13.2563 22.1739 12.8664C22.1039 12.5165 22.3338 12.2666 22.7937 12.1366C23.0836 12.0567 23.3636 11.9467 23.6235 11.8167C24.0134 11.6168 24.3433 11.3568 24.4333 10.857C24.4832 10.5871 24.6332 10.2971 24.8232 10.0972C25.303 9.60734 25.243 9.04749 25.1131 8.48765C24.7832 6.92808 23.3436 5.94835 21.734 6.1383C20.2344 6.31825 19.0947 7.65788 19.1147 9.20745C19.1147 9.29742 19.1247 9.3874 19.1247 9.46737C19.1047 9.83727 18.8448 10.1072 18.5149 10.0972C18.195 10.0972 17.9551 9.85727 17.9251 9.48737C17.8451 8.55763 18.035 7.67787 18.5649 6.91808C18.8348 6.52819 18.8348 6.15829 18.7248 5.7584C18.4149 4.56874 17.2753 3.619 15.9556 3.43905C14.426 3.22911 13.1764 3.69898 12.2566 4.96862C11.9967 5.32852 11.6568 5.4085 11.3569 5.18856C11.067 4.97862 11.037 4.63872 11.2869 4.25882C12.5566 2.35935 15.1358 1.65954 17.3252 2.60928C17.4352 2.65927 17.5552 2.70925 17.6751 2.76924C17.7051 2.72925 17.7451 2.68926 17.7651 2.64927C19.0548 -0.129959 22.3838 -0.779778 24.7432 0.649824C24.9431 0.769791 25.0831 0.769791 25.283 0.669819C27.6824 -0.599828 31.0214 1.01972 31.5013 3.73897C31.5413 3.9689 31.6213 4.02889 31.8512 4.05888C33.5207 4.26882 34.8104 5.07859 35.6002 6.59817C36.35 8.04777 35.8701 9.62733 34.4505 10.4271C34.4105 10.4471 34.3705 10.4771 34.3005 10.5171C34.7504 11.5068 34.6404 12.4465 34.0006 13.2963C33.7007 13.6962 33.4608 14.1161 33.2508 14.566C32.2811 16.5754 29.6618 17.0953 27.9823 15.6357C27.8923 15.5557 27.8023 15.4657 27.6824 15.3657C27.2425 15.7156 26.9926 16.1755 26.9626 16.7054C26.9226 17.4851 26.9526 18.2749 26.9526 19.0247C27.2425 18.7648 27.5324 18.4849 27.8423 18.2249C28.852 17.3952 29.9517 17.1452 31.1914 17.6651C31.2914 17.7051 31.4413 17.6951 31.5413 17.6551C33.3808 16.8553 35.1303 17.985 35.6301 19.5646C36.3 21.684 35.8901 23.6034 34.5105 25.333C34.4205 25.4429 34.3305 25.5529 34.1806 25.7229C34.4305 25.7229 34.6104 25.7129 34.8004 25.7229C35.3702 25.7528 35.9101 26.1827 35.9201 26.7426C35.9601 28.1922 36.05 29.6418 35.5602 31.0514C34.5704 33.9206 31.8712 35.91 28.842 35.92C21.5841 35.94 14.3261 35.94 7.05809 35.92C3.21915 35.98 0.0400376 32.7809 4.86793e-05 28.892C-0.00994854 28.3321 4.86793e-05 27.7723 4.86793e-05 27.2024C4.86793e-05 26.2727 0.439927 25.8228 1.35967 25.8028C1.41965 25.8028 1.47964 25.7928 1.57961 25.7828ZM26.3227 8.11775C28.4821 5.26854 33.3708 6.42822 33.7607 9.50736C34.6804 9.20745 35.0803 8.17773 34.5804 7.24799C33.8606 5.88837 32.691 5.27854 31.1614 5.33852C30.5416 5.35852 30.3116 5.12858 30.3816 4.50875C30.4416 3.9689 30.2916 3.48904 29.9917 3.05915C29.4319 2.24938 28.6521 1.76951 27.6924 1.57957C26.8826 1.41961 26.1328 1.51958 25.483 2.08942C25.1931 2.34935 24.8931 2.28937 24.6032 2.05943C23.7834 1.38962 22.8437 1.15968 21.804 1.20967C20.5243 1.27965 19.2947 2.1894 18.8748 3.38906C18.8448 3.48904 18.8348 3.65899 18.8948 3.71897C19.4147 4.26882 19.7546 4.90864 19.9645 5.63844C20.6643 5.24855 21.3741 5.02861 22.1539 5.01861C22.9337 5.00861 23.6435 5.22855 24.3333 5.58845C24.3733 5.4285 24.4033 5.30853 24.4333 5.18856C25.0431 2.8992 27.8423 1.97945 29.6918 3.43905C30.0817 3.74896 30.1617 4.09887 29.9217 4.39878C29.6818 4.6887 29.3819 4.65871 28.962 4.40878C28.5921 4.19884 28.1722 3.99889 27.7623 3.94891C26.9526 3.85893 26.2927 4.20884 25.8529 4.89864C25.443 5.52847 25.373 6.19828 25.6929 6.89809C25.9029 7.30797 26.1128 7.70786 26.3227 8.11775ZM30.2416 15.3457C31.2414 15.3457 32.1211 14.6659 32.4011 13.6962C32.461 13.4763 32.571 13.2363 32.721 13.0964C33.6107 12.2666 33.6407 11.3668 32.8009 10.4971C32.661 10.3571 32.551 10.1072 32.551 9.91725C32.551 9.19745 32.2211 8.6776 31.6613 8.27771C30.5816 7.49792 28.872 7.49792 27.8423 8.33769C27.5224 8.59762 27.2325 8.98751 27.1025 9.3774C26.9626 9.78729 26.7926 10.0572 26.4227 10.2971C25.293 11.0269 25.233 12.3066 26.2927 13.1264C26.7026 13.4363 27.1925 13.6562 27.6724 13.8462C27.9823 13.9761 28.2322 14.1061 28.4321 14.406C28.852 15.0258 29.4819 15.3158 30.2416 15.3457ZM31.8512 25.6929C32.4011 25.6429 32.8209 25.4629 33.1608 25.143C34.6304 23.7434 35.1203 22.0539 34.5605 20.0944C34.1806 18.7648 32.8109 18.3049 31.6613 19.0647C30.0617 20.1344 29.3019 22.7337 30.0917 24.4832C30.2217 24.7731 30.4416 25.0331 30.6615 25.383C30.7415 25.153 30.7815 25.043 30.8215 24.9231C31.2614 23.6134 31.7012 22.3038 32.1411 20.9942C32.3011 20.5143 32.591 20.3144 32.9509 20.4243C33.3308 20.5443 33.4408 20.8842 33.2808 21.3841C33.2208 21.564 33.1608 21.734 33.1009 21.9139C32.691 23.1636 32.2711 24.4032 31.8512 25.6929ZM26.9826 25.7728C27.0325 25.7928 27.0725 25.8128 27.1225 25.8328C27.2025 25.7329 27.2925 25.6329 27.3525 25.5229C27.7323 24.7331 28.1122 23.9534 28.4721 23.1536C28.5421 23.0036 28.5821 22.8237 28.5921 22.6537C28.6821 21.2541 29.132 20.0044 30.0617 18.9347C30.1117 18.8748 30.1417 18.8048 30.1917 18.7248C29.5718 18.7048 29.092 18.8748 28.6421 19.2547C27.9523 19.8545 27.4824 20.5843 27.2225 21.454C26.8026 22.8737 27.0825 24.3332 26.9826 25.7728ZM3.61904 11.7367C2.7093 11.5768 1.89952 12.0267 1.57961 12.8564C1.2597 13.6762 1.55962 14.6159 2.30941 15.0758C2.6993 15.3158 3.10919 15.5357 3.51907 15.7456C3.58905 15.7856 3.71902 15.8056 3.779 15.7656C4.04892 15.6057 4.30885 15.4257 4.57878 15.2458C3.49908 14.286 3.18916 13.1164 3.61904 11.7367ZM2.81927 17.0953C2.03948 17.2852 1.50963 17.935 1.44965 18.7448C1.38966 19.4946 1.86953 20.2644 2.58933 20.5443C2.98922 20.7043 3.4091 20.7942 3.85898 20.5743C2.71929 19.3446 2.55934 18.7948 2.81927 17.0953ZM8.23776 8.46765C7.68791 8.14774 7.07808 8.12775 6.46825 8.44766C5.89841 8.74757 5.5685 9.23744 5.50852 9.93724C6.33829 9.7273 7.10807 9.76729 7.82787 10.1072C7.96784 9.54735 8.0978 9.0275 8.23776 8.46765ZM2.64931 22.4338C2.02948 23.0136 1.90952 23.8634 2.27942 24.6132C2.65931 25.373 3.51907 25.8728 4.23887 25.7429C2.99922 25.0031 2.46936 23.9234 2.64931 22.4338ZM28.952 24.9331C28.812 25.233 28.6821 25.4929 28.5621 25.7628C28.872 25.7628 29.142 25.7628 29.4319 25.7628C29.2719 25.4929 29.132 25.253 28.952 24.9331Z" fill="#2A7891"/>
</svg>
